<svg xmlns="http://www.w3.org/2000/svg" viewBox="0 0 450 450"><style>.st10,.st11,.st14,.st3,.st4,.st6{fill:none;stroke:#dadad8;stroke-width:7.39;stroke-linejoin:round}.st10,.st11,.st14,.st4,.st6{stroke-width:4.4917}.st10,.st11,.st14,.st6{stroke:#7f7f7f;stroke-width:9.89}.st10,.st11,.st14{stroke:#fff;stroke-width:3.4683;stroke-linecap:round}.st11,.st14{stroke-width:5.5425}.st14{stroke:#ffffab;stroke-width:7.4175}.st17{fill:#757575;stroke:#fff;stroke-width:.1;stroke-miterlimit:10}.st18{font-family:&apos;sans-serif&apos;}</style><g id="Map_1_"><path id="Land" fill="#fefffe" d="M-4 455V-3h458v458H-4z"/><g id="Canalway-Tunnel"><path id="_x2D_" fill="none" stroke="#a8cfdc" stroke-dasharray="5.42 5.42" stroke-width="5.415" d="M105.9 453.3L-1.3 308.7l-2.7-3.5"/></g><path id="Building" fill="#e5e1d1" stroke="#f9f9f9" stroke-width=".5" d="M-4 455h.9l-.9-1.3v1.3m0-64.7L18.9 418l29.9 37H80l-43.5-51.6 2.5-2-12-14.6 9.5-8.1L20.9 359-4 379.4v10.9m0-293.5l49.5 58.8L58.1 145-4 71.8v25m3.7 142.5l10 12.1 25.7-20.7 80.6-65 6.6-5.6 7.1-6.1 71.9-56.3 8.1-6.6 12.1-9.5 1.5-1-17.6-22.2-7.6-10L157.7-3h-19.9l63.8 81.1-81.5 63.9-7.1 6.1L-.3 239.3M16.9-1.1L27.4 12 46.6-3H19.4l-2.5 1.9M28.4 337l14.1 17.1 4.1-3 2 2.5 3.5-3 2 2.5 29.2-24.2-23.2-28.2L31 324.9l2.5 3-3.5 3 2.5 3-4.1 3.1M44 82.1l16.6 20.2 7.6-6.1L51.1 76 44 82.1m22.7 208.5l14.1 17.6 2.5-2 13.1 16.1-10 8 40.3 51.4 18.1 23.2 13.6 17.6 8.1-6.6 6.6 8.1 6.6 9-28.2 22h25.7l25.4-19.9 180.9-142.6-12.1-16.1-29.2 22.7L245 175.7l30.2-23.7-11.6-14.6-13.6 10-51.9 41.3-38.6 30.3 6.6 8.6-3 3-29.2 22.2-4.6 3.5-7.1-9-55.5 43.3m21.2 8.6l48.3-37.3 6.1 8 2.5-2 29.7-22.7 8.1-6.6-5.1-7.1 49.9-38.3 36.3 46.8-34.2 26.8 25.7 31.7 33.7-26.2 32.2 42.4-128.5 99.2 4.1 5.1-6.1 4.6-3.5 3-6.6-8.6-24.2-31.7 4.6-3.5-38.2-49.7-5.6 4.6-29.2-38.5M102 436.7l9 12.6 6.6-5.1-9-12.1-6.6 4.6m59.9-175.3l11.6 13.6 7.5-6.6-11.4-14-7.7 7m11.6 20.6l9.5 12.1 8.1-6.6-9.5-12.1-8.1 6.6m22.1-29.1l22.2 2.5 1-9.5-22.2-2.6-1 9.6m16.1-26.3l14.1 1-1.5 17.1 10 1 2.5-26.6-24.2-2.5-.9 10M254.9 455h31.4l14.1-11.2 4.6 5.1 25.2-20.2-4.6-5.6 77.1-61.5 4.6-3 10-8.1L454 397v-26l-33.2-42.1-22.2 17.6-2.5 2-79.6 63.4 3.5 4.1-25.7 20.2-6.1-8.1-33.3 26.9m5-458l28 36.7 11-8 7.6-5.6L336.4-3h-21.1l-23.9 18.5L277.3-3h-17.4m120.6 443.2l18.1 2.5-1.5 12.3h6.4l1.7-11.2 14.1 2 2-14.1-39.3-5.1-1.5 13.6m24.7-41.8l11.6 1.5 1-7.1-11.6-1.5-1 7.1M444 37.7l10 12.7V29.9l-10 7.8m7.1 52.9l2.9 3.7v-6.1l-2.9 2.4z"/><g id="Pedestrian-Outline"><path id="_x2D_-1" d="M-4 315l4.3 5.4 14.1 18.1 4.6 6.1 86.6 109.8 9-3 2.8 3.7" class="st3"/></g><g id="Footway-Outline"><path d="M299.4 149.6l-8.6-11m54.5-60l-12.1 9M374.5 266.9L352.3 280l-85.1-105.3 23.7-21.7 8.6-3.5 15.1 25.2 35.3 46.3 17.1 22.7 6.6 10 .9 13.2 21.7 32.2 2.5 2.5 2 1.5 4.1 3.5 10.5 6.6 13.1 8.1L454 356m-38.7-42.8l-26.6 20.7 9 11.6 10.5 13.6 45.8 55.6M290.9 153l-23.7-29.2-8.5-11.6-4.1-5.6-6.1-7.5-11.5-16L180.5 7l-8-10M454 251.9l-16.5-21.3-48.3-62.9-45.3-60 21.7-18.1L349.8 70l11-20.7 57-47.3 5.4-5M234.5 455L386 335.9l2.5-2M365.4 89.6l46.8 59 41.7 52.8M10.5 455L-4 436.3m0-83.7l4.3-3 14.1-11m252.8-214.7l-6.1 4.6L245 141l-94.7 74.1L67.6 279 52 274.4l-8-2-31.7 25.2-8.1-10.5-8.2-11.5M253.5-3l34.9 45.8-16.1 12.6-11.6 9.1-9.5 8L237.1 83l-65.5 51.9-42.4 32.7L-4 273.8M345.9-3l-51 40.7-6.6 5.1m-236.7 140l21.2-57.5 2.5-21.7-7.1-24.2 50.4-43.8L127.2 5M-4 184.2l21.4 25.4m436.6 7.6l-16.5 13.5m-48.5-63l23.2-19.2 13.1-11.6 28.7-21.5M202.8 455l7.9-6.3 182.8-143.1 5.1-4.1M106.5 140l6.6 8.1 9.5 12.1 6.6 7.6m216.1-89.2l4.6-8.6-20.2 5.6-4.1-4.6-7.6-8.1-4.1-4.6-7.1-7.6-8.6-9-3.5-4.1M208.4-3l52.2 67.5M8.8 133L-4 134.1m12.8 20.5l10.5-9.6m53.4-19.6l45.8 5.1" class="st4"/><path d="M68.2 79.6L46.6 68.9H34L-4 23.1" class="st4"/></g><path id="Service-Outline" d="M454 419.7l-44.3-55.1-3.5-4.1-10.5-13.1-9.5-11.6-7.1-9M28.7 455L.3 415l-4.3-5.1M120.8-3l6.3 8 58 73.6-66.5 51.9-12.1 9.6L51.6 183l-32.3-38-10.5-12L-4 118.2M301.5-3l-6.6 5-3.6-5m-62.9 0l-.5.4M215.6 455l-4.8-6.3-8.1-10-12.1-15.6-5.6-8.1-14.6-23.2M18.9 344.5L4.2 355.1-4 361m55.6-178.2l-34.2 26.6L4.8 219l-8.7-11m8.6 11.1l-8.7 6.5m8.2 129.5l-4.1-5.6-4.3-6.1m136.4-152.6l18.1 24.2 10 12.1 2.5 3.5 11.6 14.6 9.6 13.1m107.9-81l63.4 81.6 25.1-18.1M161.9 433.1l-32.2-41.3L99.5 417l28.3 38m6.6 0l27.6-21.9M307.8 455l27.4-21.9 2.5-9 72-59.5M185.1 415l-2.5 1.5-1 1-9.6 7.1-10 8.6" class="st3"/><path id="Local-Outline" fill="none" stroke="#c5c5c0" stroke-linejoin="round" stroke-width="7.39" d="M216.2 455L379 326.9l19.2-15.1 6.6-5.1 15.6-13.6"/><g id="Main-Outline"><path id="_x2D_-2" d="M259.1 82.5l-8.6 15.1 17.1-4.1m.1.2l25.7-10.5L318.1 63l39.8-30.7L401.1-3m-45.3 0l-57.4 44.8L276.7 61l-17.6 21.7" class="st6"/><path id="_x2D_-3" d="M-4 291.2l.7-.1 4.1-2 3.5-2 128-96.3L248.6 99l2-1.5" class="st6"/></g><path id="Throughway-Ramp-Outline" fill="none" stroke="#7f7f7f" stroke-linejoin="round" stroke-width="7.816" d="M347.8 196.9l3.5 3 3.5 2 4.1.5h3.5l3.5-1.5 3-2 2.5-3 1.5-3.5v-3.5l-.5-3-2-6.1m65.1 84.1l-5.1-2-4.6-1.5h-5.1l-3 1-2.5 2-3 3-2 4.1-.5 3.5v3l1 3.5"/><path id="Parking" fill="#b1c0c9" d="M96.4 416.5l1-5.1 26.8-21.7 35.3 44.8-25.2 20.5h-8.1l-29.8-38.5M33 386.3l4.6-4.1 46.8 56.9-4.6 3.5L33 386.3m-37-55.9L10.3 347-4 357.4v-27M92.9 22.1l10.5-24.2 15.2 15.2-11.1 25.6-14.6-16.6m185.4 157.2l20.2-16.6 63.9 84.6 7.1 9-19.7 15.6-71.5-92.6z"/><path id="Square" fill="#d8ccd7" d="M413.3 121.3l13.1-10.5 23.2-18.1 4.5 5.7v44.1L439 154.2l-7.5 6.6 14.1 18.6 5.6-3.5-5.6-7.1-.6-8.8 5.6-8.1 3.4-1.3v76.6l-9 6.8 9 11.8v14.7L323.1 91.1l-2.5-5.6V81l1.5-5.6 3.5-4.6 29.2-24.7 13.1 15.2 3.5 5.1 15.1 19.2-11 9.1 2 2.5 1.5-1.5h3.5l2.5 2.5-.5 3-2 2 5.6 6.6 2-1.5 2.5-.5 2 2.5v3.5l-2 2.5 5.6 5.1 3.5-1 2.5 1 .5 3.5-2.5 2 1.5 2 9.6-7.6m-10.1 58.5l33.2 42.9 15.1-12.1-33.2-42.9-15.1 12.1m47.9 7.6l2.9 3.7v-6l-2.9 2.3m-93.8-79.1l29.2 36.8 9-6.6-2-3-1.5 1.5h-3l-3-2.5.5-3.5 1.5-1.5-5.1-6.1-2 1-2.5-.5-2-2.5v-3l2-1.5-5.1-6.1-1.5 1h-3l-1.5-1.5-1.5-3.5 2.5-2.5-2-2.5-9 6.5m92.7 54.4l1 5.1 2.9 4.1v-15.7l-.4.1-2.5 3-1 3.4M302.4 55.9l1-2 3.5-3 12.1-9 6.1 7.6-11 9-4.6 3.5-3-.5-4.1-5.6m-70 68l22.2-17.1 2.5-2 8.6-2 7.1 3 35.3 44.3 10 21.2 52.4 70-3.5 2.5-4.6 3.5-63.9-84.6-20.2 16.6 71.5 92.7 19.7-15.6 4.1-2.5 3.5-3 33.2 45.3-9.5 7.1-6.1 4.1-1-1.5-2.5-2.5-7.5-10.5-12.1-16.1-29.2 22.7-97.2-123.4 30.2-23.7-11.6-14.6-13.6 10-5.1-6.6-12.7-17.3z"/><g id="Footway-Fill"><path d="M299.4 149.6l-8.6-11m54.5-60l-12.1 9M374.5 266.9L352.3 280l-85.1-105.3 23.7-21.7 8.6-3.5 15.1 25.2 35.3 46.3 17.1 22.7 6.6 10 .9 13.2 21.7 32.2 2.5 2.5 2 1.5 4.1 3.5 10.5 6.6 13.1 8.1L454 356m-38.7-42.8l-26.6 20.7 9 11.6 10.5 13.6 45.8 55.6M290.9 153l-23.7-29.2-8.5-11.6-4.1-5.6-6.1-7.5-11.5-16L180.5 7l-8-10M454 251.9l-16.5-21.3-48.3-62.9-45.3-60 21.7-18.1L349.8 70l11-20.7 57-47.3 5.4-5M234.5 455L386 335.9l2.5-2M365.4 89.6l46.8 59 41.7 52.8M10.5 455L-4 436.3m0-83.7l4.3-3 14.1-11m252.8-214.7l-6.1 4.6L245 141l-94.7 74.1L67.6 279 52 274.4l-8-2-31.7 25.2-8.1-10.5-8.2-11.5M253.5-3l34.9 45.8-16.1 12.6-11.6 9.1-9.5 8L237.1 83l-65.5 51.9-42.4 32.7L-4 273.8M345.9-3l-51 40.7-6.6 5.1m-236.7 140l21.2-57.5 2.5-21.7-7.1-24.2 50.4-43.8L127.2 5M-4 184.2l21.4 25.4m436.6 7.6l-16.5 13.5m-48.5-63l23.2-19.2 13.1-11.6 28.7-21.5M202.8 455l7.9-6.3 182.8-143.1 5.1-4.1M106.5 140l6.6 8.1 9.5 12.1 6.6 7.6m216.1-89.2l4.6-8.6-20.2 5.6-4.1-4.6-7.6-8.1-4.1-4.6-7.1-7.6-8.6-9-3.5-4.1M208.4-3l52.2 67.5M8.8 133L-4 134.1m12.8 20.5l10.5-9.6m53.4-19.6l45.8 5.1" class="st10"/><path d="M68.2 79.6L46.6 68.9H34L-4 23.1" class="st10"/></g><path id="Service-Fill" d="M454 419.7l-44.3-55.1-3.5-4.1-10.5-13.1-9.5-11.6-7.1-9M28.7 455L.3 415l-4.3-5.1M120.8-3l6.3 8 58 73.6-66.5 51.9-12.1 9.6L51.6 183l-32.3-38-10.5-12L-4 118.2M301.5-3l-6.6 5-3.6-5m-62.9 0l-.5.4M215.6 455l-4.8-6.3-8.1-10-12.1-15.6-5.6-8.1-14.6-23.2M18.9 344.5L4.2 355.1-4 361m55.6-178.2l-34.2 26.6L4.8 219l-8.7-11m8.6 11.1l-8.7 6.5m8.2 129.5l-4.1-5.6-4.3-6.1m136.4-152.6l18.1 24.2 10 12.1 2.5 3.5 11.6 14.6 9.6 13.1m107.9-81l63.4 81.6 25.1-18.1M161.9 433.1l-32.2-41.3L99.5 417l28.3 38m6.6 0l27.6-21.9M307.8 455l27.4-21.9 2.5-9 72-59.5M185.1 415l-2.5 1.5-1 1-9.6 7.1-10 8.6" class="st11"/><g id="Pedestrian-Fill"><path id="_x2D_-5" fill="none" stroke="#feefda" stroke-linecap="round" stroke-linejoin="round" stroke-width="5.543" d="M-4 315l4.3 5.4 14.1 18.1 4.6 6.1 86.6 109.8 9-3 2.8 3.7"/></g><path id="Local-Fill" d="M216.2 455L379 326.9l19.2-15.1 6.6-5.1 15.6-13.6" class="st11"/><g id="Throughway-Outline"><path id="_x2D_-4" fill="none" stroke="#7f7f7f" stroke-linejoin="round" stroke-width="11.14" d="M190.3-3L245 65l6.1 7.5 8.1 10 8.6 11 15.1 19.7 65 83.6 32.7 43.9 30.2 39.8 9.6 12.6 33.6 41.8m0-45.6l-18.5-25.4-65-84.1-61-76.1L293.4 83l-16.6-22.2-4.6-5.6-5.6-7.1-38.8-50.7-.3-.4"/></g><g id="Main-Fill"><path id="_x2D_-6" d="M259.1 82.5l-8.6 15.1 17.1-4.1m.1.2l25.7-10.5L318.1 63l39.8-30.7L401.1-3m-45.3 0l-57.4 44.8L276.7 61l-17.6 21.7" class="st14"/><path id="_x2D_-7" d="M-4 291.2l.7-.1 4.1-2 3.5-2 128-96.3L248.6 99l2-1.5" class="st14"/></g><path id="Throughway-Ramp-Fill" fill="none" stroke="#ffffab" stroke-linecap="round" stroke-linejoin="round" stroke-width="5.862" d="M347.8 196.9l3.5 3 3.5 2 4.1.5h3.5l3.5-1.5 3-2 2.5-3 1.5-3.5v-3.5l-.5-3-2-6.1m65.1 84.1l-5.1-2-4.6-1.5h-5.1l-3 1-2.5 2-3 3-2 4.1-.5 3.5v3l1 3.5"/><g id="Throughway-Fill"><path id="_x2D_-8" fill="none" stroke="#ffffab" stroke-linecap="round" stroke-linejoin="round" stroke-width="8.355" d="M190.3-3L245 65l6.1 7.5 8.1 10 8.6 11 15.1 19.7 65 83.6 32.7 43.9 30.2 39.8 9.6 12.6 33.6 41.8m0-45.6l-18.5-25.4-65-84.1-61-76.1L293.4 83l-16.6-22.2-4.6-5.6-5.6-7.1-38.8-50.7-.3-.4"/></g></g><g id="text_1_"><text font-size="12.159" class="st17 st18" transform="rotate(-37.863 392.256 23.43)">Mykhaila Zadniprovskoho Street</text><text font-size="14.175" class="st17 st18" transform="rotate(52.137 8.963 368.889)">Lesi Ukrainky Boulevard</text></g><text id="c_1_" fill="#757575" font-size="12.901" class="st18" transform="rotate(90 .41 6.15)">© Mapcreator</text><g id="mark_2_"><path id="mark" fill="#2196f3" d="M263.7 196.6c-12.7 0-23 10.1-23 22.7v.3c0 3.3.8 6.7 2.3 9.9.2 0 20.7 40.5 20.7 40.5l20.5-40.1c1.5-3.2 2.3-6.7 2.1-10.4.2-12.6-9.9-22.9-22.6-22.9m0 36.6c-7.7 0-13.8-6.1-13.8-13.6 0-7.7 6.3-13.8 13.8-13.8 7.7 0 13.6 6.3 13.6 13.8s-6 13.6-13.6 13.6"/></g></svg>