<svg xmlns="http://www.w3.org/2000/svg" viewBox="0 0 450 450"><style>.st10,.st11,.st14,.st3,.st4,.st6{fill:none;stroke:#dadad8;stroke-width:7.39;stroke-linejoin:round}.st10,.st11,.st14,.st4,.st6{stroke-width:4.4917}.st10,.st11,.st14,.st6{stroke:#7f7f7f;stroke-width:9.89}.st10,.st11,.st14{stroke:#fff;stroke-width:3.4683;stroke-linecap:round}.st11,.st14{stroke-width:5.5425}.st14{stroke:#ffffab;stroke-width:7.4175}.st17{font-family:&apos;sans-serif&apos;}.st18{font-size:12.7324px}.st19{fill:none;stroke:#fff;stroke-width:.5}.st20{font-size:15.9155px}.st21{display:none}</style><g id="Map"><path id="Land" fill="#fefffe" d="M1 451V-1h452v452H1z"/><g id="Canalway-Tunnel"><path id="_x2D_" fill="none" stroke="#a8cfdc" stroke-dasharray="5.42 5.42" stroke-width="5.415" d="M109.5 449.3L3.7 306.6 1 303.1"/></g><path id="Building" fill="#e5e1d1" stroke="#f9f9f9" stroke-width=".5" d="M1 451h.9l-.9-1.3v1.3m0-63.9l22.6 27.4L53.1 451h30.8L41 400.1l2.5-2-11.9-14.4 9.4-8-15.4-19.4L1 376.4v10.7M1 97.5l48.9 58 12.4-10.4L1 72.8v24.7m3.7 140.6l9.9 11.9L40 229.6l79.5-64.1 6.5-5.5 7-6 71-55.6 8-6.5 11.9-9.4 1.5-1L208 59.6l-7.5-9.9L160.6-1H141l63 80-80.5 63.1-7 6-111.8 90M21.6.9L32 13.8 50.9-1H24.1L21.6.9M33 334.5l13.9 16.9 4-3 2 2.5 3.5-3 2 2.5 28.8-23.9-22.9-27.8-28.8 23.9 2.5 3-3.5 3 2.5 3-4 2.9M48.4 83l16.4 19.9 7.5-6L55.4 77l-7 6m22.4 205.8l13.9 17.4 2.5-2 12.9 15.9-9.9 7.9 39.8 50.7 17.9 22.9 13.4 17.4 8-6.5 6.5 8 6.5 8.9-27.8 21.6h25.4l25.1-19.6 178.5-140.7-11.9-15.9-28.8 22.4-95.9-121.8 29.8-23.4-11.4-14.4-13.4 9.9-51.2 40.8-38.3 29.8 6.5 8.5-3 3-28.8 21.9-4.5 3.5-7-8.9-54.8 42.7m20.9 8.4l47.7-36.8 6 7.9 2.5-2 29.3-22.4 8-6.5-5-7 49.2-37.8 35.8 46.2-33.8 26.4 25.4 31.3 33.3-25.9 31.8 41.8-126.8 97.9 4 5-6 4.5-3.5 3-6.5-8.5-23.9-31.3 4.5-3.5-37.7-49-5.5 4.5-28.8-37.8m13.9 135.7l8.9 12.4 6.5-5-8.9-11.9-6.5 4.5m59.1-173l11.4 13.4 7.4-6.5-11.3-13.8-7.5 6.9m11.5 20.4l9.4 11.9 8-6.5-9.4-11.9-8 6.5m21.8-28.8l21.9 2.5 1-9.4L199 242l-1 9.5m15.9-25.9l13.9 1-1.5 16.9 9.9 1 2.5-26.3-23.9-2.5-.9 9.9M256.5 451h31l13.9-11.1 4.5 5 24.9-19.9-4.5-5.5 76.1-60.7 4.5-3 9.9-8 36.2 45.9V368l-32.8-41.5-21.9 17.4-2.5 2-78.6 62.6 3.5 4-25.4 19.9-6-8-32.8 26.6m4.9-452L289 35.2l10.9-7.9 7.5-5.5L336.9-1h-20.8l-23.6 18.3L278.6-1h-17.2m119.1 437.4l17.9 2.5-1.5 12.1h6.3l1.7-11.1 13.9 2 2-13.9-38.8-5-1.5 13.4m24.3-41.3l11.4 1.5 1-7-11.4-1.5-1 7m38.3-355.9l9.9 12.5V31.5l-9.9 7.7m7 52.2l2.9 3.7v-6l-2.9 2.3z"/><g id="Pedestrian-Outline"><path id="_x2D_-1" d="M1 312.8l4.2 5.3L19.1 336l4.5 6 85.5 108.4 8.9-3 2.8 3.7" class="st3"/></g><g id="Footway-Outline"><path d="M300.4 149.6l-8.5-10.9m53.8-59.2l-11.9 8.9M374.5 265.4l-21.9 12.9-84-103.9L292 153l8.5-3.5 14.9 24.9 34.8 45.7 16.9 22.4 6.5 9.9.9 13 21.4 31.8 2.5 2.5 2 1.5 4 3.5 10.4 6.5 12.9 8 25.3 34.1m-38.2-42.2l-26.3 20.4 8.9 11.4 10.4 13.4 45.2 54.9M292 153l-23.4-28.8-8.4-11.4-4-5.5-6-7.4L238.8 84 183.1 8.9 175.2-1M453 250.6l-16.3-21-47.7-62.1-44.7-59.2 21.4-17.9L350.2 71l10.9-20.4 56.2-46.7 5.3-4.9M236.4 451l149.5-117.5 2.5-2M365.6 90.4l46.2 58.2 41.2 52.1M15.3 451L1 432.5m0-82.6l4.2-3L19.1 336m249.5-211.8l-6 4.5-15.9 12.4-93.5 73.1-81.5 63.1-15.4-4.5-7.9-2-31.3 24.9-8-10.4L1 274M255.1-1l34.4 45.2-15.9 12.4-11.4 9-9.4 7.9-13.9 10.4-64.6 51.2-41.8 32.3L1 272.2M346.3-1L296 39.2l-6.5 5M55.9 182.4l20.9-56.7 2.5-21.4-7-23.9L122 37.2l8.5-30.3M1 183.7l21.1 25.1m430.9 7.5l-16.3 13.3m-47.8-62.1l22.9-18.9 12.9-11.4L453 116M205.1 451l7.8-6.2 180.4-141.2 5-4M110.1 140.1l6.5 8L126 160l6.5 7.5m213.2-88l4.5-8.5-19.9 5.5-4-4.5-7.5-8-4-4.5-7-7.5-8.5-8.9-3.5-4M210.6-1l51.5 66.6M13.6 133.2L1 134.3m12.6 20.2L24 145m52.7-19.3l45.2 5" class="st4"/><path d="M72.3 80.5L50.9 70H38.5L1 24.8" class="st4"/></g><path id="Service-Outline" d="M453 416.2l-43.7-54.4-3.5-4-10.4-12.9-9.4-11.4-7-8.9M33.3 451L5.2 411.5l-4.2-5M124.2-1l6.2 7.9 57.2 72.6-65.6 51.2-11.9 9.5-54.2 42.3L24 145.1l-10.4-11.9L1 118.6M302.5-1L296 3.9 292.4-1m-62 0l-.5.4M217.7 451l-4.7-6.2-8-9.9-11.9-15.4-5.5-8-14.4-22.9M23.6 341.9L9.1 352.4 1 358.2m54.9-175.8l-33.8 26.3-12.4 9.5-8.6-11m8.5 11L1 224.6m8.1 127.8l-4-5.5-4.2-6m134.5-150.6l17.9 23.9 9.9 11.9 2.5 3.5 11.4 14.4 9.5 12.9m106.4-80l62.6 80.5 24.8-17.9M164.7 429.4l-31.8-40.8-29.8 24.9L131 451m6.6 0l27.2-21.6M308.7 451l27-21.6 2.5-8.9 71.1-58.7m-221.7 49.7l-2.5 1.5-1 1-9.5 7-9.9 8.5" class="st3"/><path id="Local-Outline" fill="none" stroke="#c5c5c0" stroke-linejoin="round" stroke-width="7.39" d="M218.3 451L379 324.6l18.9-14.9 6.5-5 15.4-13.4"/><g id="Main-Outline"><path id="_x2D_-2" d="M260.7 83.4l-8.5 14.9 16.9-4m0 .1L294.5 84l24.4-19.9 39.3-30.3L400.8-1m-44.7 0l-56.6 44.2-21.4 18.9-17.4 21.4" class="st6"/><path id="_x2D_-3" d="M1 289.3l.7-.1 4-2 3.5-2 126.3-95 114.8-90.5 2-1.5" class="st6"/></g><path id="Throughway-Ramp-Outline" fill="none" stroke="#7f7f7f" stroke-linejoin="round" stroke-width="7.816" d="M348.2 196.3l3.5 3 3.5 2 4 .5h3.5l3.5-1.5 3-2 2.5-3 1.5-3.5v-3.5l-.5-3-2-6m64 83.1l-5-2-4.5-1.5h-5l-3 1-2.5 2-3 3-2 4-.5 3.5v3l1 3.5"/><path id="Parking" fill="#b1c0c9" d="M100.1 413l1-5 26.4-21.4 34.8 44.2-24.8 20.2h-8l-29.4-38m-62.6-29.8l4.5-4 46.2 56.2-4.5 3.5-46.2-55.7M1 328l14.1 16.4L1 354.7V328M96.6 23.8L107-.1l15 15-11 25.3-14.4-16.4m183 155.1l19.9-16.4 63.1 83.5 7 8.9-19.4 15.4-70.6-91.4z"/><path id="Square" fill="#d8ccd7" d="M412.8 121.7l12.9-10.4 22.9-17.9L453 99v43.5L438.1 154l-7.4 6.5 13.9 18.4 5.5-3.5-5.5-7-.5-8.5 5.5-8 3.4-1.3v75.6l-8.9 6.7 8.9 11.6V259L323.8 91.9l-2.5-5.5V82l1.5-5.5 3.5-4.5 28.8-24.4 12.9 15 3.5 5 14.9 18.9-10.9 9 2 2.5 1.5-1.5h3.5L385 99l-.5 3-2 2 5.5 6.5 2-1.5 2.5-.5 2 2.5v3.5l-2 2.5 5.5 5 3.5-1 2.5 1 .5 3.5-2.5 2 1.5 2 9.3-7.8m-9.9 57.7l32.8 42.3 14.9-11.9-32.8-42.3-14.9 11.9m47.2 7.5l2.9 3.7v-5.9l-2.9 2.2m-92.5-78.1l28.8 36.3 8.9-6.5-2-3-1.5 1.5h-3l-3-2.5.5-3.5 1.5-1.5-5-6-2 1-2.5-.5-2-2.5v-3l2-1.5-5-6-1.5 1h-3l-1.5-1.5-1.5-3.5 2.5-2.5-2-2.5-8.7 6.7m91.5 53.7l1 5 2.9 4V156l-.4.1-2.5 3-1 3.4M303.4 57.1l1-2 3.5-3 11.9-8.9 6 7.5-10.9 8.9-4.5 3.5-3-.5-4-5.5m-69.1 67.1l21.9-16.9 2.5-2 8.5-2 7 3L309 150l9.9 20.9 51.7 69.1-3.5 2.5-4.5 3.5-63.1-83.5-19.9 16.4 70.6 91.5 19.4-15.4 4-2.5 3.5-3 32.8 44.7-9.4 7-6 4-1-1.5-2.5-2.5-7.4-10.4-11.9-15.9-28.8 22.4L247 175.5l29.8-23.4-11.4-14.4-13.4 9.9-5-6.5-12.7-16.9z"/><g id="Footway-Fill"><path d="M300.4 149.6l-8.5-10.9m53.8-59.2l-11.9 8.9M374.5 265.4l-21.9 12.9-84-103.9L292 153l8.5-3.5 14.9 24.9 34.8 45.7 16.9 22.4 6.5 9.9.9 13 21.4 31.8 2.5 2.5 2 1.5 4 3.5 10.4 6.5 12.9 8 25.3 34.1m-38.2-42.2l-26.3 20.4 8.9 11.4 10.4 13.4 45.2 54.9M292 153l-23.4-28.8-8.4-11.4-4-5.5-6-7.4L238.8 84 183.1 8.9 175.2-1M453 250.6l-16.3-21-47.7-62.1-44.7-59.2 21.4-17.9L350.2 71l10.9-20.4 56.2-46.7 5.3-4.9M236.4 451l149.5-117.5 2.5-2M365.6 90.4l46.2 58.2 41.2 52.1M15.3 451L1 432.5m0-82.6l4.2-3L19.1 336m249.5-211.8l-6 4.5-15.9 12.4-93.5 73.1-81.5 63.1-15.4-4.5-7.9-2-31.3 24.9-8-10.4L1 274M255.1-1l34.4 45.2-15.9 12.4-11.4 9-9.4 7.9-13.9 10.4-64.6 51.2-41.8 32.3L1 272.2M346.3-1L296 39.2l-6.5 5M55.9 182.4l20.9-56.7 2.5-21.4-7-23.9L122 37.2l8.5-30.3M1 183.7l21.1 25.1m430.9 7.5l-16.3 13.3m-47.8-62.1l22.9-18.9 12.9-11.4L453 116M205.1 451l7.8-6.2 180.4-141.2 5-4M110.1 140.1l6.5 8L126 160l6.5 7.5m213.2-88l4.5-8.5-19.9 5.5-4-4.5-7.5-8-4-4.5-7-7.5-8.5-8.9-3.5-4M210.6-1l51.5 66.6M13.6 133.2L1 134.3m12.6 20.2L24 145m52.7-19.3l45.2 5" class="st10"/><path d="M72.3 80.5L50.9 70H38.5L1 24.8" class="st10"/></g><path id="Service-Fill" d="M453 416.2l-43.7-54.4-3.5-4-10.4-12.9-9.4-11.4-7-8.9M33.3 451L5.2 411.5l-4.2-5M124.2-1l6.2 7.9 57.2 72.6-65.6 51.2-11.9 9.5-54.2 42.3L24 145.1l-10.4-11.9L1 118.6M302.5-1L296 3.9 292.4-1m-62 0l-.5.4M217.7 451l-4.7-6.2-8-9.9-11.9-15.4-5.5-8-14.4-22.9M23.6 341.9L9.1 352.4 1 358.2m54.9-175.8l-33.8 26.3-12.4 9.5-8.6-11m8.5 11L1 224.6m8.1 127.8l-4-5.5-4.2-6m134.5-150.6l17.9 23.9 9.9 11.9 2.5 3.5 11.4 14.4 9.5 12.9m106.4-80l62.6 80.5 24.8-17.9M164.7 429.4l-31.8-40.8-29.8 24.9L131 451m6.6 0l27.2-21.6M308.7 451l27-21.6 2.5-8.9 71.1-58.7m-221.7 49.7l-2.5 1.5-1 1-9.5 7-9.9 8.5" class="st11"/><g id="Pedestrian-Fill"><path id="_x2D_-5" fill="none" stroke="#feefda" stroke-linecap="round" stroke-linejoin="round" stroke-width="5.543" d="M1 312.8l4.2 5.3L19.1 336l4.5 6 85.5 108.4 8.9-3 2.8 3.7"/></g><path id="Local-Fill" d="M218.3 451L379 324.6l18.9-14.9 6.5-5 15.4-13.4" class="st11"/><g id="Throughway-Outline"><path id="_x2D_-4" fill="none" stroke="#7f7f7f" stroke-linejoin="round" stroke-width="11.14" d="M192.8-1l54 67.1 6 7.4 8 9.9 8.5 10.9 14.9 19.4 64.1 82.5 32.3 43.3 29.8 39.3 9.5 12.4 33.2 41.3m-.1-45l-18.3-25.1-64.1-83-60.2-75.1-15.9-20.4L278.1 62l-4.5-5.5-5.5-7L229.8-.6l-.3-.4"/></g><g id="Main-Fill"><path id="_x2D_-6" d="M260.7 83.4l-8.5 14.9 16.9-4m0 .1L294.5 84l24.4-19.9 39.3-30.3L400.8-1m-44.7 0l-56.6 44.2-21.4 18.9-17.4 21.4" class="st14"/><path id="_x2D_-7" d="M1 289.3l.7-.1 4-2 3.5-2 126.3-95 114.8-90.5 2-1.5" class="st14"/></g><path id="Throughway-Ramp-Fill" fill="none" stroke="#ffffab" stroke-linecap="round" stroke-linejoin="round" stroke-width="5.862" d="M348.2 196.3l3.5 3 3.5 2 4 .5h3.5l3.5-1.5 3-2 2.5-3 1.5-3.5v-3.5l-.5-3-2-6m64 83.1l-5-2-4.5-1.5h-5l-3 1-2.5 2-3 3-2 4-.5 3.5v3l1 3.5"/><g id="Throughway-Fill"><path id="_x2D_-8" fill="none" stroke="#ffffab" stroke-linecap="round" stroke-linejoin="round" stroke-width="8.355" d="M192.8-1l54 67.1 6 7.4 8 9.9 8.5 10.9 14.9 19.4 64.1 82.5 32.3 43.3 29.8 39.3 9.5 12.4 33.2 41.3m-.1-45l-18.3-25.1-64.1-83-60.2-75.1-15.9-20.4L278.1 62l-4.5-5.5-5.5-7L229.8-.6l-.3-.4"/></g></g><g id="c"><text class="st17 st18" transform="translate(304.986 436.677)">© Mapcreator</text></g><g id="text"><g id="Main"><g id="fixtextpath0"><text class="st19 st17 st20" transform="rotate(-36.946 421.013 73.757)">M</text><text class="st19 st17 st20" transform="rotate(-36.946 414.383 53.917)">y</text><text class="st19 st17 st20" transform="rotate(-36.946 410.404 42.007)">k</text><text class="st19 st17 st20" transform="rotate(-36.946 406.422 30.098)">h</text><text class="st19 st17 st20" transform="rotate(-36.899 402.53 16.717)">a</text><text class="st19 st17 st20" transform="rotate(-36.899 398.104 3.45)">i</text><text class="st19 st17 st20" transform="rotate(-36.899 396.338 -1.848)">l</text><text class="st19 st17 st20" transform="rotate(-36.956 393.986 -6.95)">a</text><text class="st19 st17 st20" transform="rotate(-36.956 389.56 -20.192)"></text><text class="st19 st17 st20" transform="rotate(-36.956 387.348 -26.81)">Z</text><text class="st19 st17 st20" transform="rotate(-36.927 382.762 -41.474)">a</text><text class="st19 st17 st20" transform="rotate(-36.927 378.336 -54.73)">d</text><text class="st19 st17 st20" transform="rotate(-36.927 373.909 -67.984)">n</text><text class="st19 st17 st20" transform="rotate(-37.104 367.875 -80.317)">i</text><text class="st19 st17 st20" transform="rotate(-37.104 366.105 -85.584)">p</text><text class="st19 st17 st20" transform="rotate(-37.104 361.68 -98.77)">r</text><text class="st19 st17 st20" transform="rotate(-38.242 349.817 -100.315)">o</text><text class="st19 st17 st20" transform="rotate(-38.242 345.392 -113.08)">v</text><text class="st19 st17 st20" transform="rotate(-38.242 341.412 -124.557)">s</text><text class="st19 st17 st20" transform="rotate(-38.224 337.595 -136.148)">k</text><text class="st19 st17 st20" transform="rotate(-38.224 333.615 -147.63)">o</text><text class="st19 st17 st20" transform="rotate(-38.224 329.19 -160.404)">h</text><text class="st19 st17 st20" transform="rotate(-38.242 324.615 -173.045)">o</text><text class="st19 st17 st20" transform="rotate(-38.242 320.189 -185.809)"></text><text class="st19 st17 st20" transform="rotate(-38.242 317.979 -192.188)">S</text><text class="st19 st17 st20" transform="rotate(-38.227 312.757 -207.61)">t</text><text class="st19 st17 st20" transform="rotate(-38.227 310.548 -213.99)">r</text><text class="st19 st17 st20" transform="rotate(-38.227 307.898 -221.636)">e</text><text class="st19 st17 st20" transform="rotate(-38.227 303.472 -234.407)">e</text><text class="st19 st17 st20" transform="rotate(-38.227 299.047 -247.176)">t</text><text class="st17 st20" transform="rotate(-36.946 421.013 73.757)">M</text><text class="st17 st20" transform="rotate(-36.946 414.383 53.917)">y</text><text class="st17 st20" transform="rotate(-36.946 410.404 42.007)">k</text><text class="st17 st20" transform="rotate(-36.946 406.422 30.098)">h</text><text class="st17 st20" transform="rotate(-36.899 402.53 16.717)">a</text><text class="st17 st20" transform="rotate(-36.899 398.104 3.45)">i</text><text class="st17 st20" transform="rotate(-36.899 396.338 -1.848)">l</text><text class="st17 st20" transform="rotate(-36.956 393.986 -6.95)">a</text><text class="st17 st20" transform="rotate(-36.956 389.56 -20.192)"></text><text class="st17 st20" transform="rotate(-36.956 387.348 -26.81)">Z</text><text class="st17 st20" transform="rotate(-36.927 382.762 -41.474)">a</text><text class="st17 st20" transform="rotate(-36.927 378.336 -54.73)">d</text><text class="st17 st20" transform="rotate(-36.927 373.909 -67.984)">n</text><text class="st17 st20" transform="rotate(-37.104 367.875 -80.317)">i</text><text class="st17 st20" transform="rotate(-37.104 366.105 -85.584)">p</text><text class="st17 st20" transform="rotate(-37.104 361.68 -98.77)">r</text><text class="st17 st20" transform="rotate(-38.242 349.817 -100.315)">o</text><text class="st17 st20" transform="rotate(-38.242 345.392 -113.08)">v</text><text class="st17 st20" transform="rotate(-38.242 341.412 -124.557)">s</text><text class="st17 st20" transform="rotate(-38.224 337.595 -136.148)">k</text><text class="st17 st20" transform="rotate(-38.224 333.615 -147.63)">o</text><text class="st17 st20" transform="rotate(-38.224 329.19 -160.404)">h</text><text class="st17 st20" transform="rotate(-38.242 324.615 -173.045)">o</text><text class="st17 st20" transform="rotate(-38.242 320.189 -185.809)"></text><text class="st17 st20" transform="rotate(-38.242 317.979 -192.188)">S</text><text class="st17 st20" transform="rotate(-38.227 312.757 -207.61)">t</text><text class="st17 st20" transform="rotate(-38.227 310.548 -213.99)">r</text><text class="st17 st20" transform="rotate(-38.227 307.898 -221.636)">e</text><text class="st17 st20" transform="rotate(-38.227 303.472 -234.407)">e</text><text class="st17 st20" transform="rotate(-38.227 299.047 -247.176)">t</text><path id="tp0" d="M21.1 276.3l43.6-32.8 18.1-13.6 18.1-13.6 18.1-13.6 18.1-13.7 17.8-14 17.8-14 17.8-14 42.9-33.8" class="st21"/></g></g><g id="Throughway"><g id="fixtextpath1"><text class="st19 st17 st20" transform="rotate(52.137 -4.678 396.962)">L</text><text class="st19 st17 st20" transform="rotate(52.137 -9.105 406.008)">e</text><text class="st19 st17 st20" transform="rotate(52.137 -13.53 415.055)">s</text><text class="st19 st17 st20" transform="rotate(52.137 -17.509 423.188)">i</text><text class="st19 st17 st20" transform="rotate(52.137 -19.277 426.8)"></text><text class="st19 st17 st20" transform="rotate(52.23 -21.107 430.617)">U</text><text class="st19 st17 st20" transform="rotate(52.23 -26.854 442.338)">k</text><text class="st19 st17 st20" transform="rotate(53.187 -26.55 443.097)">r</text><text class="st19 st17 st20" transform="rotate(53.187 -29.2 448.391)">a</text><text class="st19 st17 st20" transform="rotate(53.187 -33.627 457.231)">i</text><text class="st19 st17 st20" transform="rotate(53.187 -35.395 460.763)">n</text><text class="st19 st17 st20" transform="rotate(53.252 -39.52 469.078)">k</text><text class="st19 st17 st20" transform="rotate(53.252 -43.5 477.014)">y</text><text class="st19 st17 st20" transform="rotate(53.037 -48.571 486.724)"></text><text class="st19 st17 st20" transform="rotate(53.037 -50.782 491.155)">B</text><text class="st19 st17 st20" transform="rotate(53.037 -56.09 501.792)">o</text><text class="st19 st17 st20" transform="rotate(52.786 -61.918 512.784)">u</text><text class="st19 st17 st20" transform="rotate(52.786 -66.343 521.702)">l</text><text class="st19 st17 st20" transform="rotate(52.786 -68.11 525.265)">e</text><text class="st19 st17 st20" transform="rotate(52.778 -72.575 534.262)">v</text><text class="st19 st17 st20" transform="rotate(52.778 -76.553 542.282)">a</text><text class="st19 st17 st20" transform="rotate(52.778 -80.978 551.202)">r</text><text class="st19 st17 st20" transform="rotate(52.778 -83.628 556.543)">d</text><text class="st17 st20" transform="rotate(52.137 -4.678 396.962)">L</text><text class="st17 st20" transform="rotate(52.137 -9.105 406.008)">e</text><text class="st17 st20" transform="rotate(52.137 -13.53 415.055)">s</text><text class="st17 st20" transform="rotate(52.137 -17.509 423.188)">i</text><text class="st17 st20" transform="rotate(52.137 -19.277 426.8)"></text><text class="st17 st20" transform="rotate(52.23 -21.107 430.617)">U</text><text class="st17 st20" transform="rotate(52.23 -26.854 442.338)">k</text><text class="st17 st20" transform="rotate(53.187 -26.55 443.097)">r</text><text class="st17 st20" transform="rotate(53.187 -29.2 448.391)">a</text><text class="st17 st20" transform="rotate(53.187 -33.627 457.231)">i</text><text class="st17 st20" transform="rotate(53.187 -35.395 460.763)">n</text><text class="st17 st20" transform="rotate(53.252 -39.52 469.078)">k</text><text class="st17 st20" transform="rotate(53.252 -43.5 477.014)">y</text><text class="st17 st20" transform="rotate(53.037 -48.571 486.724)"></text><text class="st17 st20" transform="rotate(53.037 -50.782 491.155)">B</text><text class="st17 st20" transform="rotate(53.037 -56.09 501.792)">o</text><text class="st17 st20" transform="rotate(52.786 -61.918 512.784)">u</text><text class="st17 st20" transform="rotate(52.786 -66.343 521.702)">l</text><text class="st17 st20" transform="rotate(52.786 -68.11 525.265)">e</text><text class="st17 st20" transform="rotate(52.778 -72.575 534.262)">v</text><text class="st17 st20" transform="rotate(52.778 -76.553 542.282)">a</text><text class="st17 st20" transform="rotate(52.778 -80.978 551.202)">r</text><text class="st17 st20" transform="rotate(52.778 -83.628 556.543)">d</text><path id="tp1" d="M303.1 138.4l32.5 41.8 12.9 16.7 12.6 16.9 12.6 16.9 12.7 16.9 12.8 16.8 32.1 42.2" class="st21"/></g><g id="fixtextpath2"><text class="st19 st17 st20" transform="rotate(51.288 22.807 412.105)">L</text><text class="st19 st17 st20" transform="rotate(51.288 18.382 421.325)">e</text><text class="st19 st17 st20" transform="rotate(51.288 13.955 430.543)">s</text><text class="st19 st17 st20" transform="rotate(51.288 9.977 438.83)">i</text><text class="st19 st17 st20" transform="rotate(51.288 8.208 442.514)"></text><text class="st19 st17 st20" transform="rotate(51.312 6.086 446.9)">U</text><text class="st19 st17 st20" transform="rotate(51.312 .339 458.865)">k</text><text class="st19 st17 st20" transform="rotate(52.076 -.474 460.757)">r</text><text class="st19 st17 st20" transform="rotate(52.076 -3.123 466.182)">a</text><text class="st19 st17 st20" transform="rotate(52.076 -7.55 475.24)">i</text><text class="st19 st17 st20" transform="rotate(52.076 -9.317 478.859)">n</text><text class="st19 st17 st20" transform="rotate(52.324 -12.647 485.739)">k</text><text class="st19 st17 st20" transform="rotate(52.324 -16.626 493.84)">y</text><text class="st19 st17 st20" transform="rotate(52.324 -20.605 501.94)"></text><text class="st19 st17 st20" transform="rotate(52.324 -22.816 506.44)">B</text><text class="st19 st17 st20" transform="rotate(52.324 -28.124 517.244)">o</text><text class="st19 st17 st20" transform="rotate(52.292 -32.71 526.582)">u</text><text class="st19 st17 st20" transform="rotate(52.292 -37.135 535.596)">l</text><text class="st19 st17 st20" transform="rotate(52.292 -38.903 539.2)">e</text><text class="st19 st17 st20" transform="rotate(52.321 -43.168 547.947)">v</text><text class="st19 st17 st20" transform="rotate(52.321 -47.148 556.048)">a</text><text class="st19 st17 st20" transform="rotate(52.321 -51.574 565.059)">r</text><text class="st19 st17 st20" transform="rotate(52.321 -54.223 570.453)">d</text><text class="st17 st20" transform="rotate(51.288 22.807 412.105)">L</text><text class="st17 st20" transform="rotate(51.288 18.382 421.325)">e</text><text class="st17 st20" transform="rotate(51.288 13.955 430.543)">s</text><text class="st17 st20" transform="rotate(51.288 9.977 438.83)">i</text><text class="st17 st20" transform="rotate(51.288 8.208 442.514)"></text><text class="st17 st20" transform="rotate(51.312 6.086 446.9)">U</text><text class="st17 st20" transform="rotate(51.312 .339 458.865)">k</text><text class="st17 st20" transform="rotate(52.076 -.474 460.757)">r</text><text class="st17 st20" transform="rotate(52.076 -3.123 466.182)">a</text><text class="st17 st20" transform="rotate(52.076 -7.55 475.24)">i</text><text class="st17 st20" transform="rotate(52.076 -9.317 478.859)">n</text><text class="st17 st20" transform="rotate(52.324 -12.647 485.739)">k</text><text class="st17 st20" transform="rotate(52.324 -16.626 493.84)">y</text><text class="st17 st20" transform="rotate(52.324 -20.605 501.94)"></text><text class="st17 st20" transform="rotate(52.324 -22.816 506.44)">B</text><text class="st17 st20" transform="rotate(52.324 -28.124 517.244)">o</text><text class="st17 st20" transform="rotate(52.292 -32.71 526.582)">u</text><text class="st17 st20" transform="rotate(52.292 -37.135 535.596)">l</text><text class="st17 st20" transform="rotate(52.292 -38.903 539.2)">e</text><text class="st17 st20" transform="rotate(52.321 -43.168 547.947)">v</text><text class="st17 st20" transform="rotate(52.321 -47.148 556.048)">a</text><text class="st17 st20" transform="rotate(52.321 -51.574 565.059)">r</text><text class="st17 st20" transform="rotate(52.321 -54.223 570.453)">d</text><path id="tp2" d="M321.4 118l33.1 41.3 13.2 16.5 13 16.6 12.9 16.7 12.9 16.7 12.9 16.7 32.4 41.9" class="st21"/></g></g></g><g id="mark"><path id="mark_1_" fill="#2196f3" d="M265.2 196c-12.5 0-22.7 10-22.7 22.4v.3c0 3.3.8 6.6 2.3 9.8.2 0 20.4 40 20.4 40l20.2-39.6c1.5-3.2 2.3-6.6 2.1-10.3.2-12.4-9.8-22.6-22.3-22.6m0 36.1c-7.6 0-13.6-6-13.6-13.4 0-7.6 6.2-13.6 13.6-13.6 7.6 0 13.4 6.2 13.4 13.6s-5.9 13.4-13.4 13.4"/></g></svg>