<svg xmlns="http://www.w3.org/2000/svg" viewBox="0 0 1920 1080"><style>.st0{fill:#a8cfdc}.st11{fill:none;stroke:#dadad8;stroke-width:10.3515;stroke-linejoin:round;stroke-dasharray:20.7,10.35}.st13{stroke:#fff;stroke-width:8.0539;stroke-linecap:round}.st13,.st14,.st15,.st16,.st17,.st18{fill:none;stroke-linejoin:round}.st14{stroke-linecap:round;stroke:#fff;stroke-width:12.0441}.st15,.st16,.st17,.st18{stroke:#dadad8;stroke-width:16.0589}.st16,.st17,.st18{stroke-width:10.3515}.st17,.st18{stroke:#c5c5c0;stroke-width:16.0589}.st18{stroke:#7f7f7f;stroke-width:20.1604}.st20{fill:#fff}.st24,.st25,.st26{fill:none;stroke:#7f7f7f;stroke-width:22.2111;stroke-linejoin:round}.st25,.st26{stroke:#ffffab;stroke-width:15.1203;stroke-linecap:round}.st26{stroke-width:16.6583}.st27{fill:none;stroke:#fff;stroke-width:.5}.st28{font-family:&apos;ArialMT&apos;}.st29{font-size:9px}.st30{fill:#494b4b}.st31{font-size:8px}.st33{font-size:10px}.st34{display:none}</style><g id="Map"><path id="Water" d="M0 0h1920v1080H0z" class="st0"/><path id="Land" fill="#fefffe" d="M0 1080h1920V0H0v1080z"/><path id="Residential" fill="#f9f9f9" d="M78.1 416.7l91.8 84.8 68.5-17 34.6-74.9 79.1-31.8-4.2-8.5-4.2-7.8-141.3-60.7-69.9-15.5-54.4 131.4M969.2 1080h214l3.7-26.3h11.3l.7-12.7 1.4-66.4-140.5-1.4-31.1 14.1-59.5 92.7m244.6-566.5l26.1 29.7 38.8 43.8 137 179.4 15.5 24 10.6 15.5 7.1 12.7 12 21.9 14.1 34.6 21.2 51.5 30.4 73.5 14.1 35.3v-.3l3.5 8.8 15.7 36.2h87.8l222.8-167.5 12.7-26.1L1920 849V0h-30.8l-3.8 1.4-19.8 7.8-19.1 8.5-73.4 23.3-44.5 9.9-47.3 4.9-50.1-4.9-45.9-12.7L1519 0h-223.9l-2.9 9.2 31.1 55.1 122.2 146.9 13.4 49.4-24 65-76.3 66.4-37.4 33.2-67.1 54.4-2.8 2.1v.2l-28.2 23.1-3.5 3.5-5.8 5z"/><path id="Education" fill="#e4e4e4" d="M1647.8 1080l222.8-167.5 12.7-26.1L1920 849v231h-272.2z"/><path id="University" fill="#eceaea" d="M260.3 974.6l48 22.6-16.7 82.8h172.8l1.4-75 65-3.5 55.8-131.4-125.7-57.2-72-33.9-28.2-14.1-29 62.1-71.4 147.6M1630.7 0l10.4 7.1 63.1-7.1h-73.5z"/><path id="Industry" fill="#e8e8e4" d="M0 531.6L28 553l10.6 9.9-17.7 19.8L0 602v-70.4z"/><path id="Wood" fill="#e3f2de" d="M0 891.7l67.5 28.6 17.7 36-13.4 85.5-27.5 15.5-44.3-2.5V891.7m126.9 51.9l12.7-29.7 10.6-7.1 154 62.1 12 37.4-14.5 73.6h-59.6l11.9-63-7.1-18.4-117.2-43.8-2.8-11.1m19 50.1l36.7.7 33.2 22.6 1.4 32.5-4.5 30.5h-42.2l19.2-17.1 1.4-23.3-12.7-17-29.7-11.3-2.8-17.6z"/><path id="Hospital" fill="#deded9" d="M1046.3 0l-62.8 53.7-19.1-21.9-15.5 12-29.7-33.2L909.8 0h136.5M335.7 0l-89.5 199.2-43.1 24-19.1-14.8-55.8-45.9-33.9-28.2 12.7-19.1-9.9-46.6 31.1-50.1L132.6 0h203.1z"/><path id="Park" fill="#d4ebcc" d="M772.6 0l157.2 209.8-12.7 9.9L744.5 0h28.1M0 162.1L77.4 219l-4.9 7.8-30.4-1.4L0 223v-60.9M908 0l38.8 44.5-27.5 19.8L869.9 0H908m52.2 94.7L994.8 70l-9.2-12 65.7-58h51.1l15.3 12.7-19.8 16.3-1.4 15.5-111.6 82.6-24.7-32.4z"/><g id="Canalway-Tunnel"><path id="_x2D_" fill="none" stroke="#a8cfdc" stroke-dasharray="11.09 11.09" stroke-width="11.094" d="M715.2 769.8L564.7 567.1l-21.9-29L427 382.8l-80.5-59.3-55.1-28.2-52.3-19.8-81.9-17-74.9-11.3L0 241.6"/></g><path id="Lake" d="M1197.5 362.3l1.4-4.9 3.5-4.2 7.1-2.1h9.9l9.2 1.4 9.9 3.5 9.9 5.6 7.1 6.4 7.8 7.8 3.5 8.5 2.8 9.9.7 8.5v8.5l-.7 7.8-2.1 9.2-2.1 4.2-4.9 2.8h-6.4l-5.7-1.4-4.2-2.8-3.5-5.6 24.7-19.1-14.1-17.7-24.7 18.4-27.5-37.4-1.6-7.3z" class="st0"/><path id="Building" fill="#e7e7e0" stroke="#f9f9f9" stroke-width=".5" d="M0 994.6l55.5 35.9 14.8-24L0 961.2v33.4m0-184.4l15.3 14.7 26.1-.7 17.7-19.1-.8-21.1-21.2-19.8-26.1.7L0 777v33.2M0 729l30.8-32.7-29.7-27.5L0 670v59m0-274.6l4.7-3 57.9 92.5 31.1-19.1L28 420.2 0 437.4v17m0-317.2l76 58.4 17 12.8 32.5-42.4-22.6-17.7-12.7 16.9-79.8-61.4L0 117.5v19.7m0-76.7l15.3 11.6 14.8-20.5-23.3-17L0 43.7v16.8m10.3 512.3l10.6 9.9 17.7-19.8L28 553l-17.7 19.8m1.4 44.5L40 639.9l7.8-9.9-27.5-22.6-8.6 9.9M23.4 0l26.5 17.7L81 38.9l-2.1 3.5L95.1 53l19.1-27.6L76.5 0H23.4m4.9 1080h27.1l.1-.8-26.1-4.9-1.1 5.7m36.4-227.5l12 6.3 10.6-19.1-12-7.1-10.6 19.9m.7-120.1l28.2 26.1 98.9-108.8 3.5-6.4 2.1-7.8-.7-7.8-2.8-7.1-14.1-23.3 7.1-4.2-7.1-11.3-23.3-38.1 16.9-10.6-30.4-49.4-30.4 18.4 26.1 41.7-14.8 9.9 14.1 22.6-9.2 5.7 12 18.4 8.5 14.1-2.8 4.2-3.5 6.4-1.4 7.1.7 7.1 2.1 5.7-79.7 87.4m40.2 347.6h23.7l7.5-43.9-22.6-4.2-8.6 48.1m5.7-245.9l1.4 6.4 5.6 5.6 3.5 2.1h6.4l6.4-3.5 4.9 1.4 12.7 6.4 2.1 4.2 5.7 5.7 8.5 4.9 7.8 2.8 11.3 1.4 7.8 1.4 30.4 12 4.9 4.2 4.9 5.7h8.5l5.7-3.5 5.6-7.8 9.9-25.4.7-5.6-.7-6.4-4.2-4.9-7.8-2.1-7.1 2.1-8.5 4.2-6.4.7-36.7-16.2 2.8-5.6-9.9-5-4.2 5.6-18.4-8.5-4.2.7-1.4 2.8-3.5-5.6-5.6-4.2 4.9-4.9 2.8-4.2-1.4-7.1-3.5-3.5h-7.1l-7.1 4.2-24.7 33.2-2.8 6.3m10.6-638.5l53.7 41.7 10.6 7.8 17-21.9-19.1-14.8-4.9 6.4-45.2-35.3-12.1 16.1m7.8 256.4l3.5 6.4 36.7 9.2 4.9-2.8 22.6-90.4 3.5.7 5 1.4 7.8-4.2 6.4-26.1-4.9-7.1-48-12-7.8 4.2L129.7 452m10.6-346l48.7 20.5-3.5 9.2-12-4.9-8.5 19.8 30.4 12.7 42.4-101-81.9-34.6L144.6 56l65 27.5-7.1 16.2-50.1-21.2-12.1 27.5m46.6 366.5l7.1 2.1 3.5-13.4-7.1-2.1-3.5 13.4m6.3 59.3l93.2 106.6 24-21.2-68.4-78.3-8.5 7.1-24.7-27.5-15.6 13.3m3.6-33.9l2.8 12 9.2-2.1 1.4 7.1 35.3-6.4-3.5-19.1-45.2 8.5m2.1-309.3l18.4 9.2 14.8-31.1 10.6 5.6 7.1-14.8-21.2-10.6-4.2 9.2-7.1-3.5-18.4 36m17.7 568.5l5.6 17.7 11.3 14.8 12.7 7.8 2.8 2.1 18.4 4.2 22.6-2.8 6.4 17.7 28.2-55.8 26.1-52.3 26.1-16.2 19.1-21.2 12.7-26.8 2.1-33.2-88.3 72.7-7.1-7.8-6.4-6.4-8.5-4.2-8.5-1.4-9.2.7-8.5 3.5-7.1 6.3-4.9-4.2-2.8 4.2-38.1 48-4.2 14.1-.5 18.5m38.8-9.2l12-15.5 5.6-6.4 20.5 7.8-5.6 25.4-12.7.7h-8.5l-11.3-12M224.3 0l1.4.7.4-.7h-1.8m2.8 424.5l11.3 3.5 5.6-17.6-6.3-1.4-5-2.1-5.6 17.6m14.2-393.4l32.5 15.5 15.5-31.8-4.2-2.1 6-12.7h-34.7l-15.1 31.1m13.4 460.5l2.1 21.9 7.8 21.2 12.7 19.1 16.9 14.8 20.5 9.9 24 5 24-1.4 23.3-8.5 20.5-14.1 15.5-19.1 9.2-21.9 3.5-24.7-2.8-24-9.9-22.6-15.5-19.2-19.8-14.1-23.3-8.5-22.6-2.1-21.9 4.2-20.5 9.2-17.6 14.1-14.1 17.7-8.5 20.5-3.5 22.6m27.5 4.2l4.9-23.3 12.7-17.7 16.2-11.3 17.7-4.9h13.4l17.7 5.6 13.4 9.9 9.2 11.3-4.9 2.8 7.8 33.2 9.2-.7-5 14.8-6.3 9.9-7.1 11.3-19.1 10.7-16.2 4.2-19.1-1.4-21.2-9.2-14.8-17-6.4-13.4-2.1-14.8m-10.6 474.6l19.8 9.2 5.6-13.4-19-9.2-6.4 13.4m17-30.4l24.7 12.7L350 880l43.1 21.9-6.4 11.3 27.5 14.1 6.4-11.3 11.3 5.6-6.4 11.3L453 947l5.6-12 12.7 6.3-5.6 12 27.5 13.4 5.6-11.3 24 12 14.8-30.4-24-12 4.9-9.2-27.5-14.1-4.2 9.2-12.7-6.4 4.9-9.2-26.8-13.4-5 9.2-12-6.4 4.9-9.2-27.5-13.4 1.4-2.8-16-8.3 5-9.9-23.3-12-4.9 9.9-3.5-1.4-1.4 2.8-10.6-5.7-2.8 5.7-13.4-7.1L288.6 940M307 211.9l65.7 86.2 18.4-13.4-65.7-86.9-18.4 14.1m21.1-58.6l19.1 7.8 52.3-119.3-18.4-8.5-33.2 74.9-19.8 45.1m4.3 885.6l27.6.7-.7 26.1h-6.4l-.4 14.3h28.3l.3-13.6h5.6l.7-25.4h14.1l22.6.7-1.4 38.3H457l2.4-74.3-57.2-2.1h-3.5l-65-2.1-1.3 37.4m13.4-93.2L350 957l41 19.8 16.2-7.1 2.1 1.4 43.1.7 12.7 6.4 2.1-4.2 4.2 2.1 6.4-11.3-53-24.7-3.5 7.1-62.9-29.7-12.6 28.2m70.6-189.3l4.9 7.8 4.2 2.1 4.9 9.9 11.3.7h4.2l2.1 6.3 4.2 1.4 19.8.7 18.4-1.4 25.4-6.4 11.3-8.5 4.9-12-2.8-19.8-9.9-11.3h-18.4l-7.8 9.2-4.2 5.7-12.7 2.8-12.7-.7L443 733l-4.2-7.8h-11.3l-7.8 7.1-3.5 8.5v15.6m3.8-449.9L529.4 445l17.7-14.1-108.8-138.5-18.3 14.1m.6 406.8l93.2-14.8-7.1-8.5 2.1-2.1-5-7.8-3.5-12-12 3.5 3.5-7.1.7-7.1-1.4-7.1-3.5-5.6-6.4-5.7-7.1-2.8-7.1-.7-7.8 2.8-6.4 4.9-3.5 4.2-2.1 5.6-.7 7.1.7 4.9 2.8 5.7-9.2.7-20.2 41.9M432 851l84 41.7-2.8 6.4 26.8 13.4 9.9-19.1 5.6 2.8 3.5-6.3-6.4-2.8 9.9-19.1-32.5-16.2-3.5 5.7-62.1-30.5-2.8 5.6-8.5-4.2L432 851m4.9-728.1l193.5 229.5 17.7-14.8-194.2-228.8-17 14.1m28.2 957.1H480v-1.6h-14.8l-.1 1.6m15.6-10.7l16.2 7.1 4.9-12-16.2-7.1-4.9 12M507.5 31.1l13.4 17L538.6 34 552 51l-14.8 11.3 14.1 18.4L569 66.4l13.4 16.2-19.1 14.1 15.5 19.8 17.7-13.4 12 15.5-18.4 14.1 14.8 18.4 43.1-33.9-14.8-18.4-16.2 12.8-12.7-15.5 14.8-10.6-15.5-19.8-13.4 10.6-11.3-14.8L593 50.9l-14.1-17.7L564 44.5l-14.1-17.6 14.8-12L553.4 0h-5.8l-40.1 31.1M521.3 1080H607l-21.9-8.6 50.8-130 26.1 9.9-4.9 20.5V993l9.2 37.4-8.5 7.8 17 27.5 7.8-4.2 28.2 17.7 2.9.8h89.1l25.9-15 14.1-17 12-19.1 28.2 10.6-15.8 40.4h28.5l11.4-29.1 26.8 10.6 12.7-33.2-77.7-30.4 10.6-27.5-32.5-12.7-24 62.2-14.1 19.8-12 7.1-12.7 4.2-13.2 2.1-14.1.7-14.8-2.1-13.4-4.2-9.9-7.1-8.5-7.8-7.8-9.2-5.7-10.6-5-23.3 1.4-20.5 25.4-65.7-30.4-12-9.9 26.1-74.9-29-12 31.1 23.3 9.2-51.5 130.7-29.7-11.3-12.2 32m3.9-262.9l34.6 13.4 2.8-6.3 12.7-33.9-21.9-30.4-7.8 4.2-17.6 46.7-2.8 6.3m28.2-144.7l39.5 48 77.7 96 7.8 7.8 13.4 1.4-1.4 7.8 18.4 2.1 1.4-7.8 26.1 3.5 2.8-22.6-2.1-4.2-1.4-1.4-4.9-.7v-2.8l-33.2-5-79.8-94.6 3.5-2.8-16.9-20.5 13.4-11.3-21.9-27.5-42.4 34.6m12.7-202.7l14.1 16.9 36-28.9 113-91.1 9.2-7.8 9.9-8.5 101-79.1 11.3-9.2 16.9-13.4 2.1-1.4-24.6-31.1-10.6-14.1-89-113-20.5-25.4-50-63.6h-27.4l191.8 243.7-114.4 89.7-9.9 8.5-158.9 127.8m40.3 137l19.8 24 5.7-4.2 2.8 3.5 4.9-4.2 2.8 3.5 41-33.9-32.5-39.5-41 33.9 3.5 4.2-4.9 4.2 3.5 4.2-5.6 4.3m21.9-357.4l23.3 28.2 10.6-8.5-24-28.2-9.9 8.5m31.8 292.4l19.8 24.7 3.5-2.8 18.4 22.6-14.1 11.3 56.5 72 25.4 32.5 19.1 24.7 11.3-9.2 9.2 11.3 9.2 12.7-67.8 53 13.4 17.7 86.9-67.8 253.5-199.9-17-22.6-41 31.8-136.3-173 42.4-33.2-16.3-20.5-19.1 14.1-72.7 57.9-54.4 42.4 9.2 12-4.2 4.2-41 31.1-6.3 4.9-9.9-12.7-77.7 60.8m29.6 12l67.8-52.3 8.5 11.3 3.5-2.8 41.7-31.8 11.3-9.2-7.1-9.9 69.9-53.7 50.9 65.7-48 37.4 36 44.5 47.3-36.7 45.2 59.3-180.1 139.2 5.7 7.1-8.5 6.4-5 4.2-9.2-12-33.9-44.5 6.4-5-53.6-69.9-7.8 6.4-41-53.7m19.8 192.8l12.7 17.7 9.2-7.1-12.7-17-9.2 6.4m12.7 200.6l36.7 14.1 5.6-12.7-17.7-7.1 4.2-10.6-19.1-7.8-9.7 24.1m49.5 19.8l32.5 12.7 4.9-12.7-32.5-12.7-4.9 12.7m21.8-466.1l16.2 19.1 10.6-9.2-16.2-19.8-10.6 9.9m16.3 28.9l13.4 17 11.3-9.2-13.4-16.9-11.3 9.1M830 0l83.6 107.4 56.5 74.2 15.5-11.3 10.6-7.8 108.8-84 43.8-34.6-17.7-22.6-16.2 12.7 6.4 8.5-146.2 113.6-45.9-60.7L854.9 0H830m10.9 488.7l31.1 3.5 1.4-13.4-31.1-3.5-1.4 13.4m3.5 370.1l26.1 26.8 12.7-11.3-26.8-27.5-12 12M863.5 452l19.8 1.4-2.1 24 14.1 1.4 3.5-37.4-33.9-3.5-1.4 14.1m19.7 536.1l89 .7v-17l-89-.7v17m5.7-175.2l38.1 47.3 14.1-10.6 18.4 23.3 9.2-7.1 31.1 38.8 13.4-10.6 41 51.6 12-9.2 13.4 17 18.4-14.8 2.1-1.4 5.6 7.8 34.6-27.5 21.2-17.7 52.3-41 4.2 5.7 59.3-45.9 1.4-1.4 32.5-26.1-6.4-7.8-66.4-84-81.9-103.8-31.1 24.7-3.5 2.8-111.6 89 4.9 5.7-36 28.2-8.5-11.3-68.5 55.1 6.4 7.8-2.8 2.1-16.9 13.3m25.4 2.1l2.8-2.1 70.6-56.5 6.4 7.1 35.3-28.2-6.4-7.8 108.1-86.2 6.3-4.2 14.1-11.3 129.9 164.6-14.8 12-1.4 1.4-60 47.3-4.9-6.3-50.8 40.2-58.6 47.3-22.6-27.5-12 9.9-25.4-31.8-12.7 10.6-31.1-38.8-10.6 9.2-26.1-32.5-14.1 11.3-22-27.7m95.2-815l12.2 9.9 8-9.9h-20.2m21.6 1080h29.8l6.7-20.6 6.4-19.8 2.8-9.2-20.5-17.7-25.2 67.3m10.3-254.4l19.8 24 4.2-3.5 7.1 8.5 13.4-10.6-7.1-9.2-19.1-23.3-18.3 14.1m52.3-31.1l57.2 7.1 2.1-19.1-21.9-2.8 3.5-23.3 19.8 2.8 2.8-19.8-55.1-7.1-2.1 19.1 25.4 3.5-2.8 23.3-26.1-3.5-2.8 19.8m19.5 285.5h41.1l21.3-31.2 1.4-5.7v-4.9l-1.4-5.6-3.5-4.2-4.2-2.8-5.7-1.4h-4.9l-5 2.1-4.2 3.5-34.9 50.2m21.5-387.2l16.2 2.1 1.4-9.9-16.2-2.1-1.4 9.9m16.2-678.7l14.8 12 22-26.1h-24.9l-11.9 14.1m38.2 173.1l40.3 50.9-30.4 23.3 18.4 23.3 19.1 24 31.8-24.7 38.1 48.7 32.5-24.7-49.4-64.3 11.3-9.2 9.9 12.7 69.9-54.4-40.2-52.3-69.2 54.4 10.6 14.1-12.7 9.2-45.2-57.9-34.8 26.9m16.9 815.7l.7 9.2 7.8-.7 1.4 16.2 17.7-1.4-2.1-25.4-25.5 2.1m8.6 77.1h27.1l2.5-24.8-26.8-2.8-2.8 27.6m10.5-950l2.1 2.8 16.2 2.8 69.9-55.8-19.1-29-38.1 30.4-.7 2.8-16.2 16.2-.7 12.7-13.4 17.1m7 843.2l2.1 19.1 5.7 18.4 9.9 16.2 12.7 14.1 15.5 11.3 3.5 2.1 13.4 5.7 19.1 4.2 19.1-.7 18.4-3.5 14.8-6.3 12.7-8.5 12-10.6 9.2-12.7 7.1-13.4 4.9-14.8 2.1-15.5-.7-16.2-2.8-14.8-6.4-14.8-7.8-13.4-10.6-11.3-12-9.9-14.1-7.8-14.8-5-15.5-2.1h-15.5l-18.4 4.2-17.6 7.1-15.5 11.3-12.7 14.1-9.2 17-2.1 3.5-4.2 14.1-2.3 18.9m29.7 1.4l.7-12 3.5-12 4.9-10.6 7.8-9.9 9.2-7.8 10.6-5.7 11.3-4.2 12-1.4 12 1.4 12 2.8 10.6 5.7 9.9 7.8 7.1 9.2 6.4 9.9 3.5 12 1.4 11.3-.7 12-3.5 11.3-5.6 10.6-7.1 9.9-9.2 7.8-9.9 5.7-11.3 4.2-12 1.4-12-.7-11.3-2.8-10.6-5.7-9.9-7.1-7.8-9.2-6.4-10.6-4.2-11.3-1.4-12m-1.7 105.4h9.9l.3-12.1h-9.9l-.3 12.1M1300.6.7l7.8 7.1 7.1-7.8h0-14.2l-.7.7m.7 479.6l8.5 9.9 3.5-1.4 19.1 21.9 7.1-4.9 4.9 4.9 31.1-26.8-7.8-9.9-4.2 2.1-3.5-3.5-2.8 2.8-9.9-12 3.5-2.8-8.5-11.3-4.9 3.5-4.2-4.2-27.5 20.5 2.8 4.9-7.2 6.3m41-58.7l4.9 12 11.3 5h12.7l12-5 16.9-17.6 14.8 2.1 69.2-64.3 21.2-108.1 7.8-9.2 2.1-14.8-8.5-13.4-9.9-3.5h-12.7l-10.6 7.1-5.7 10.6 1.4 12.7-19.1 104.5-56.5 48.7-16.2-.7L1360 399l-13.4 12.7-4.3 9.9m37.4-182.2l15.5 19.1 21.2-16.9-14.8-19.1-21.9 16.9m33.2-158.2l.7 13.4 4.2 13.4 7.8 11.3 9.9 9.2 12.7 6.4 13.4 2.8 13.4-.7 13.4-4.2 11.3-7.8 9.9-9.9 6.4-12 2.8-14.8-.7-15.5-5.7-14.1-9.2-12.7-12.7-8.5-14.1-5.7-15.5-.7-14.8 3.5-13.4 7.8-10.6 11.3-7.1 13.4-2.1 14.1m27.6 7.8v-8.5l2.8-7.8 4.9-7.1 7.1-4.9 8.5-2.8 8.5.7 7.8 3.5 7.1 4.9 4.2 7.8 1.4 8.5-.7 8.5-4.2 7.8-6.4 6.4-7.8 3.5-8.5 1.4-8.5-2.1-7.8-4.9-4.9-6.4-3.5-8.5m-14.2 560.8l9.2 9.9 2.8-2.1 19.1 22.6 7.8-4.9 4.2 4.9 31.8-26.8-8.5-10.6-3.5 2.8-3.5-3.5-3.5 2.8-9.2-12.7 2.8-2.8-8.5-10.6-4.2 3.5-4.2-4.2-27.5 20.5 2.8 4.2-7.9 7m22.6-212.6l147.6 186.5-20.5 16.2 13.4 17 5.7-4.2 5.7 7.8 44.5-34.6-5.7-7.1-129.2-163.9-9.9-12 18.4-14.8-16.9-21.2-8.5 6.4-3.5-4.9-7.1 5.6-2.1-2.1-31.9 25.3m81.3-166l61.4 14.1 6.4-28.2 7.1-29.7-60.7-14.8-14.2 58.6m19.7 158.2l130 163.8 55.1-43.8-6.4-8.5 8.5-7.1-28.2-36-7.8 5.6-9.2-12 4.9-3.5-33.9-43.8-10.6 9.2 5.7 7.1-6.4 2.1-11.3-8.5-6.4-4.2-9.2-2.8-4.9-1.4-11.3 1.4-20.5-26.8-10.6 8.5-2.8-4.2-8.5 6.4-7.1-9.2-9.1 7.7m7.1 389.9l35.3 44.5 37.4-28.2L1593 791l-36 28.3m29.7-423.1l79.1 17 9.2-43.8-78.4-17-9.9 43.8m2.1 630l1.4 9.9 2.8 10.6 2.8 8.5 4.9 7.8 4.9 9.2 7.1 7.8.1.1h8.2l19.9-17.1-5.7-7.1-5.7-7.8-5.7-9.9-3.5-5.6-2.8-6.4-2.8-9.2-2.1-9.9-.7-6.3v-7.1l1.4-6.4 2.1-6.4 6.4-7.1 6.3-3.5-2.1 11.3-.7 7.8v8.5l24.7 29.7 14.8 1.4 15.5-12.7.7-14.8-23.3-31.1-14.1-1.4-16.2-16.2-7.1 1.4-4.2 3.5-3.5 2.8-6.4 7.1-2.1-1.4-3.5-1.4-3.5 2.8-2.8 3.5-.7 4.2 1.4 4.2 2.1 1.4-4.9 9.9-2.1 8.5-1.4 8.5v18.4m38.9-333.4l21.2 27.5 19.1-14.8 13.4 17 25.4-20.5-34.6-43.8-44.5 34.6m17.7 387.2h18.8l.2-.1-6.3-8.5-12.7 8.6m44.5-133.6l4.2 20.5 9.9-2.1 1.4 8.5 100.3-19.1-2.1-11.3 17-3.5-4.2-20.5-15.5 2.8-.7-4.2-98.9 19.1 1.4 7.1-12.8 2.7m16.2-733.1l45.2 11.3 11.3-43.8-45.9-11.3-10.6 43.8m15.8 866.7h51.7l126.8-104.7-20.5-24.7-158 129.4m14.6-470.5l31.8 40.2 14.1-11.3 2.8 3.5 16.9-13.4-12-14.8 5.6-4.2 5.7 6.3 6.4-4.9-1.4-2.1 10.6-8.5 5.7 6.3 97.4-77.1v-28.8l-14.8-18.4-21.9 17.7 11.3 14.1-5.7 5-3.5-3.5-9.2 7.1-2.8-3.5-9.9 7.1 2.8 4.2-10.6 7.8 2.8 3.5-3.5 2.8 2.8 4.2-5.7 4.2-2.8-3.5-4.2 3.5-2.8-3.5-9.2 7.1-2.8-4.2-11.3 9.2 3.5 4.2-9.2 7.1 2.1 2.8-5.7 4.2 1.4 2.1-4.2 3.5-15.5-19.8-55 43.8m13.4 165.3l9.9 14.1-3.5 2.8 4.9 5.7 3.5-2.1 12.7 14.8 6.4-5.7 8.5 9.2 4.2.7 2.8-6.4 6.3-5.7 5 .7 4.2-2.8 7.1 1.4 22.6-18.4-3.5-6.3 5.7-5.7h7.1l2.8-8.5-4.2-7.1 5-5.7-9.9-12.7v-4.2l-2.1-4.2h-2.1l-4.9-6.3-4.9 2.1-6.4-7.8-4.2 2.8-7.1-6.3-6.4.7-3.5 2.1v5.6l-4.9 4.2 7.8 12 13.4 1.4 7.8 9.9-2.1 12-10.6 9.2-9.9-.7v8.5l-12 9.9-14.1-4.2-5.7-9.2 1.4-13.4-7.1-9.9-4.2-1.4-4.9 3.5-4.2-.7-4.2.7-2.1 5.6 6.3 9.2-6.7 6.6m44.5-477.4l2.8 18.4 3.5 18.4 15.5-1.4-5.6-37.4-16.2 2m46.6-50.9l1.4 26.1 6.4 22.6 9.9 24.7 22.6 21.9 21.9 12.7 14.1 4.2 2.8 1.1v-42.7l-17.6-5.7-21.2-26.8-1.4-14.1 6.3-16.2.7-14.1-10.6-11.3-18.4-.7-9.2 6.4-7.7 11.9m32.7 833.5h21.3l-8.8-10.7-12.5 10.7z"/><g id="Footway-Tunnel-Outline"><path d="M974.3 328.4l-12-16.2 21.2-16.2 7.1-5.6 4.2-3.5 38.9-29.7M1094.4 413.2l-99.6-126.4m110.9 140.5l120.8 156.1" class="st11"/></g><path id="Service-Tunnel-Outline" fill="none" stroke="#dadad8" stroke-dasharray="32.12 16.06" stroke-linejoin="round" stroke-width="16.059" d="M180.5 582l-38.8 18.4m204.1 165.9l-59.3-19.1"/><g id="Footway-Tunnel-Fill"><path d="M974.3 328.4l-12-16.2 21.2-16.2 7.1-5.6 4.2-3.5 38.9-29.7M1094.4 413.2l-99.6-126.4m110.9 140.5l120.8 156.1" class="st13"/></g><path id="Service-Tunnel-Fill" d="M180.5 582l-38.8 18.4m204.1 165.9l-59.3-19.1" class="st14"/><g id="Pedestrian-Outline"><path id="_x2D_-1" d="M549.2 560.8l17.7 22.6 19.8 25.4 6.4 8.5 121.5 154 12.7-4.2 48.7 64.3 2.8 2.8 4.9 6.4" class="st15"/></g><g id="Footway-Outline"><path d="M348.6 192.8l10.6 10.6M986.4 344l-12-15.5m76.2-84.1l-16.9 12.7m507.1-87.6l-35.3-19.1M1.9 13.4L9 4.2M1091.6 508.5l-31.1 18.4-119.3-147.6 33.2-30.4 12-4.9 21.2 35.3 49.4 65 24 31.8 9.2 14.1 1.4 18.3 30.4 45.2 3.5 3.5 2.8 2.1 5.6 5 14.8 9.2 18.4 11.3 154 207.6 48 69.2 17.7 23.3 9.9 18.4 19.1 35.3 21.9 61.4 27.9 79.9m-316.8-506.4l-37.4 29 12.7 16.2 14.8 19.1 124.3 151.1-4.2 3.5-1.4 1.4L1090.9 911l2.1 18.4 5.7 11.3 12.7 14.8 5 6.3M974.3 348.9l-33.2-41-12-16.2-5.7-7.8-8.5-10.6-16.2-22.6L819.6 144 704.8 0m836 1035.4l-14.1-35.3-30.4-73.5-21.2-51.5-14.1-34.6-12-21.9-7.1-12.7-10.6-15.5-15.5-24-137-179.4-38.8-43.8-4.9-15.5-15.5-19.1-39.6-50.8-67.8-88.3-63.6-84 30.4-25.4-21.9-27.6 15.5-28.9 79.8-66.4 32.5-30.4 41.7-43.8 38.1-39.5 4.2-4.9 6.3-4.9L1285.8 0m233 0l22 12.7m-44.5 913.9l26.8-60.7 7.8-18.4m-419.5 108.1l63.6-49.4 105.9-82.6 2.1-1.4 38.1-29.7m-468.2 13.3l33.9-26.8 221-173.7 3.5-2.8M79.4 1080l13.6-78.5 2.1-8.5m-35 87l1.1-6.5-39.6-6.4M342.2 0L254 195.6l-73.4 55.8-21.2-4.2-76.3-12.7-48-4.9-35-1.9m1078.8 32.2l65.7 82.6 69.2 87.6 24 30.4 16.2 19.1 4.9 4.2M551.3 843.3l8.5 1.4 10.6-3.5 6.3-12 3.5-6.4 13.4-34.6-79.8-103.1 5.7-5.7 12.7-5.6 6.4-2.8-6.4-10.6-4.2-7.8 38.8-28.2 19.8-15.5M1248.7 0l3.2 4.3 10.6 15.5 2.1 3.5-12 51.6-7.1 7.1-5.7 5.6-55.1 19.1M1069 37.5L1045.7 60l-7.1 1.4-7.1-3.5-4.2-5.7-.7-11.3 22.6-19.8h9.2l8.5 7.1 2.1 9.3M941.2 307.9l-8.5 6.4-22.6 17.7-132.8 103.8-115.8 89.7-21.9-6.4-11.3-2.8-44.5 35.3-11.3-14.8-12.7-17.7-33.9-42.4L396.6 320l-17.7-7.8-95.3-43.8-10.6-31.8 8.5-29 2.1-7.1L371.4 0m448.9 0L908 111.6l62.9 82.6-22.6 17.6-16.3 12.8-13.4 11.3-19.8 14.8-91.8 72.8-59.3 45.9-187.9 149.7-20.5 16.2-15.5 12-10.6 13.4-4.9 9.2-4.9 11.3-31.8 24-27.6 28.3-6.4 6.4-33.2 44.5-4.2-1.4-5.7-1.4-40.2 39.5L302 844.7l-45.2 87.6M1192.7 0l-13.5 14.9-14.8 18.4-18.4 21.8-46.6 36.7L980 187.2l-9.2 7.1m34.6-110.9l-3.5-2.8-3.5-.7-4.2-.7-3.5 1.4-2.8 2.8-2.1 3.5-.7 4.2.7 3.5 2.1 3.5 2.8 2.8 3.5 1.4h2.8l3.5-1.4 3.5-2.1 2.8-2.8.7-4.2v-3.5l-2.1-4.9M638.9 390.6l29.7-80.5 3.5-30.4-9.9-33.9 70.6-61.4 12-43.1M528 652.6l-7.8 3.5-10.6 4.2-19-23.3-19.1-8.5-16.2 2.8-11.3 2.1M980.3 0l5.4 4.3 17.7 10.6 13.4 1.4 21-16.3M0 258.2l11 .3 51.6 2.1 51.5 9.2 31.1 5.7 8.5 1.4 62.9 16.2 69.2 25.4 74.2 38.1m14.8-184.3l45.9 54.4 110.9 130.7 59.3 70.6M886.8 7.1l9.9-6.4 25.4 33.9-8.5 6.4-26.8-33.9M509.6 660.4l9.9 19.1m955.6 96l-3.5 2.8 1.4 10.6-2.1 10.6-4.2 7.1-17.7 12m-17.7-28.3l19.1-12 16.2-.7 5 .7-29.7 27.5m-123.6-250.7l222.5 283.2M281.5 207.6l-14.1-6.3-13.4-5.7m-94.7 51.6l-1.4 9.2-4.2 20.5m1084.8 134.9l-24.7 18.4-33.9 27.6m-67.8-88.4l32.5-26.8 18.4-16.2 42.4-31.8M775.9 831.3l86.2-67.8 256.4-200.6 7.1-5.7M715.9 330.5l9.2 11.3 13.4 17 9.2 10.6m533.2 454.1l-3.5-4.9-1.4-1.4-10.6-13.4-7.8-9.9m-207-549.5l6.3-12-28.2 7.8-5.6-6.4-10.6-11.3-5.6-6.4-9.9-10.6-12-12.7-4.9-5.7M758.1 0L932 224.6m182.2-202l-9.9-6.4-11.3 2.1-9.9 6.4-14.1 12.8m-63.6 45.9l26.1-25.4M877.6 14.1l9.2-7.1M1004 98.9l9.9 12.7m-26.1-13.4l-23.3 17.6m26.1-35.3l-7.1-9.9-22.6 16.2m24.8-82.5l4-4.3m-57 0l21.9 24.7 9.2-7.8m262.7 46l19.1 19.1M0 16.2l1.9-2.7m23.3 158.8L0 193.9m254 424.8l-3.5 29M1355.8 1080l-5.1-7.9 15.5-7.8 12.7-9.9 12-10.6 24-36 22.6-7.8m37.6-124.9l48-9.2m-126.4 37.4l-40.3-19.1-24-4.2h-26.8l-78.4 14.1m141.9-32.5h-14.8l-71.3-39.5M420.6 226.7l32.5-7.8 12-29.7m113.7 131.4l-37.4 3.5-88.3-105.2M578.8 351l14.8-13.4m-52.2-13.4l-9.9 33.2m137-47.3l64.3 7.1m154 461.8l19.1 20.5 11.3 13.4 12 13.4 14.1-10.6 147.6 95.3" class="st16"/><path d="M662.2 245.8L631.8 231h-17.7L468 54.4l-32.5-39.6-17 2.2M468 54.4l-62.9-4.2M95.1 993l6.3-46.6-14.1-31.8M1547.1 173.1l-41.7-22.6M1787.9 291l26.8-2.1M1681.3 55.8l-.7 8.5-.7 18.4 8.5 20.5M1251.2 697.8l69.9 94.6 48 69.2 17.7 23.3 9.9 18.4 19.1 35.3 21.9 61.4 27.9 79.9m-214.4-305.8l12 14.8-4.2 3.5-1.4 1.4-6.4 4.2m308.8 282l-15.7-36.2-17.7-43.8-30.4-73.5L1475 875l-14.1-34.6-12-21.9-7.1-12.7-10.6-15.5-15.5-24-137-179.4-27.5-31.1m0-518.3l13.4-14.1 4.2-4.9 6.3-4.9L1285.8 0m289.4 0l3.7 2.1 18.4 10.6 21.9 8.5 17.7 7.1 22.6 2.8 19.1 1.4h36.7l20.5-2.8 26.1-5.6 51.6-17.7L1829 0m-310 0l66.2 38.2 45.9 12.7 50.1 4.9 47.3-4.9L1773 41l73.5-23.3 19.1-8.5 19.8-7.8 3.8-1.4m-392.9 926.6l26.8-60.7 7.8-18.4m-279.7-.7l29.7-23.3 2.1-1.4 38.1-29.7M1251.2 476l2.8 3.5 4.9 4.2M1920 125.6l-9.2 27 9.2 2.9m0-113.9l-4.2-1.3-19.1 27.5-21.9 53.7-33.2 75.6-4.2 11.3-2.8 6.4-12 31.1-7.8 24.7V289m-67.8-60.2l-15.5 38.9 9.2 50.1 19.1 8.5 11.3 9.9-1.4 12.7-7.1 17 2.1 9.9-11.3 33.2-1.4 17.7 2.1 17.7 15.5 35.3-18.4 34.6m-500-510.8l.7.7 10.6 15.5 2.1 3.5-12 51.6-1.4 1.4m423 315.1l4.9 11.3 2.8 7.1 15.5.7 9.2-2.1 7.8-10.6 4.2-10.6 9.9-7.8 12.7-4.9 15.5-1.4 5.7-7.1m-80.4 43.7l36.7 15.5 35.3 19.1 16.2 1.4 13.4-4.9 2.1-7.8-.7-19.8-8.5-21.9-12-15.5M1885.4 1.4l-1.4 17.7-10.6 29-14.1 48.7-64.3 151.8-6.4 22.6-.7 19.8 1.4 24 4.2 12-7.8 3.5-14.8 5.6m12.8 104.6l-14.1 38.8m146.2-439.2l4.2-5.5m-13.4 374.1L1920 423m-444.9 352.5l-3.5 2.8 1.4 10.6-2.1 10.6-4.2 7.1-17.7 12m-17.7-28.3l19.1-12 16.2-.7 5 .7-29.7 27.5m-123.6-250.7l223.9 285.3L1569 875l21.2 26.8-4.2 30.4m132.7-507l19.1-11.3 15.5-5h19.1l12.7 4.2 63.6 26.8 3.5 7.1 9.9 4.9 20.5 23.3m-45.2-266.8l12.7.7 9.2 2.1 19.1 11.3 14.8 11.3 2.8 7.1m-615.1 582.6l-3.5-4.9-1.4-1.4-10.6-13.4-7.8-9.9m98.2 286.1l-5.1-7.9 15.5-7.8 12.7-9.9 12-10.6 24-36 22.6-7.8m37.6-124.9l48-9.2m-126.4 37.4l-40.3-19.1-24-4.2h-26.8l-54.4 9.9m117.9-28.3h-14.8l-71.3-39.5m471.1-377.9l-40.3 26.8-2.8 3.5m3.5-76.9l2.1 7.1 8.5 6.3 12-2.1 8.5-7.1 3.5-9.9-2.8-8.5-7.8-4.9-9.9.7M1639.6 179.4l6.4 21.2 8.5 2.8 26.8 8.5 29.7 7.1 34.6 8.5m-34.6-8.6l-4.2 21.9-17.7 17.6-23.3 8.5-21.2-5.7 4.2-15.5m5.7-42.3l.7 16.2" class="st16"/></g><g id="Service-Outline"><path d="M1164.9 1080l15.7-23.4 7.8-22.6 2.1-19.1 9.2-29m-120.8 16.3l30.4 19.8-18.4 41.7-7 16.4M99.3 488l22.6-10.6 23.3 3.5 33.9 48 9.2 45.9 2.1 2.1 35.3 41-4.9 24-52.3 56.5-88.3 96.8-74.1 80.6m1534.7-262l-93.9-118-33.9-39.5-4.2-17.6 10.6-19.1 49.4-32.5 23.3-16.2 16.9-8.5" class="st15"/><path d="M1407.3 891.3l-20.5-6.4-37.4-14.1-50.8 1.4-15.5-50.1-4.2-5-12-14.8-7.8-9.9L1141 645.5l-4.9-5.7-14.8-18.4-13.4-16.2-9.9-12.7m-834.8 46.7l-12.7 8.5-36 24-77.7 96.8L96.5 825l-5.7 19.8 3.5 9.2 11.3 5.7 33.9 16.2 7.1 3.5 110.2 53 7.1 2.1 65.7 40.3 20.5 2.1 52.3 4.9 55.8 3.5 61.4 4.2 4.2-.7 2.8-3.5 64.3-139.8 2.8-9.2 20.5-53.7-47.3-66.4-34.6-42.4-7.1-8.5-5-9.2-2.8-4.9 3.5-57.2-2.1-16.9-10.6-7.1-6.4-5-9.2-7.8m291.1 283.3l-5.6 31.1 3.5 10.6 8.5 9.9 12.7 4.9 14.8 2.8 29 1.4 105.9-.7 67.8 56.5 29.7 12 7.1 22.6 21.9 10.6 7.8-12 6.4-4.2h106.6l13.4-19.1 6.4-36.7 2.1-38.1 29.7-14.1 47.3-5.7M1057 991.6l-29.7 11.3-11.3 17.6-22.6 38.1-12.8 21.3M1221.5 892l-81.2 66.4-24 3.5-66.4 7.1m451.3 56.5l25.4-25.4 14.1-22.6M1368.4 517l-28.2 20.5-21.9 17.7-9.9 7.1 166.7 213.3 55.8 72 9.9 12.7M263.9 934.4l9.2-20.5 35.3-67.8 37.4-79.8 9.9-21.2 44.5-62.1 29-45.2 35.3-48 29-19.8h14.8M0 495.8l47.8 67.1L0 618.5m0 17l47 44.6 7.8 35.3L0 770.3m0 102.2l6.1 3.2 7.8 3.5 73.4 35.3 19.1 9.9 12.7 4.2 27.5-49.4m-43 118l50.8 28.2-12.7 54.5m449.2-234.5l-14.1 5-21.2-1.4-85.5-35.3-79.1-39.6-4.2-1.4-15.5-7.8 56.5-98.9 27.5-34.6 6.4-7.8 50.1-41 7.1-5.6 30.4-16.2 6.4-17.7m985.1-112.3l-7.1-9.9-15.5-45.2-9.2-13.4-4.9-39.6 6.4-65 30.4-69.9M633.9 0l12.8 16.3 98.2 125L826 244.4l-93.2 72.7-17 13.4-77 60-45.2-53-14.8-17-113.7-131.2-45.9-53-18.4 14.1-26.1 21.9-26.1 20.5-24.7-6.4-40.3 14.1-14.1-4.9m902.6-157.4l-7.8-5-29-27.5-21.2 17-12 9.9.7 11.3-89 67.8L980 137l-15.5-21.2L944 89l-7.8.7-7.1 5.7-15.5 12-5.6 4.2-21.9 19.1m-17 642l-7.1-9.2-11.3-14.1-17-21.9-7.8-11.3-20.5-32.5m512.9-128.6l-59.3-71.3 23.3-19.1 57.9 72.7M177.7 206.9l-46.6-35.3-20.5 26.1-19.1 25.4-4.2-2.8-62.1-48L0 152.9m593 464.4l-20.5 14.8-31.8 22.6-8.5 5.6-7.1 4.9M425.4 0l-1.9 4.3-5 12.7-13.4 33.2-56.5 142.7M1326.2 0l2.7 2.1 8.3-2.1M638.9 390.6l-48 37.4-17.7 13.4-51.5-65.7-84.1-105.9-33.2-11.3-45.2-55.1M2.2 0L9 4.3l87.6 58.6L124 17 98.4 0m837.8 89.7l-58.6-75.6L866.5 0M110.6 197.8l69.9 53.7-1.4 9.2M0 413.1l10.3-.6 31.1 4.2L99.3 488l25.4 86.2 3.5 33.2 13.4-7.1m233.2-259.2L360 356.6l-12 12.7-103.8-39.6L199 443.4M91.5 223.2L83 234.5l-7.8 10.6m1465.6-144.8l-31.1 43.1-4.2 7.1-24.7 38.8m-64.3 5.6l9.9 11.3 8.5 14.1-2.8 20.5-8.5 11.3-59.3 49.4-2.8-4.2-21.9-28.2-3.5-5 80.4-69.2M485.6 792.4l42.4 18.4 34.6 13.4 14.1 4.9 17 7.1M214.4 671.7l12.7 26.8L201 743l6.4 26.8 3.5 25.4 26.1 19.1 24.7-3.5 14.8-1.4 21.9 34.6 3.5.7 6.3 1.4m-206.8 161l-8.5-5.7-93-61m1109.3 81.6l10.6-6.4h50.1l20.5-.7 10.6 12.7 3.5 13.4m336.3-199.8l-9.9 6.4M1267.2 0l8.1 13.4 15.5 22.6 125.7 158.9M412.8 0l10.6 4.3m149.8 437.1l-47.3 35.3-21.2 15.5m67.8 139.9l-5.7-7.8-21.8-31.7M148.8 255l-3.5 20.5-4.2 24L110 421.7m327.6-151.9L379 312.2l-22.6 16.2m895.5 278.3l26.8-19.8 13.4-11.3 16.2-13.4M751.9 401.9l25.4 33.9 14.1 17 3.5 5 16.2 20.5 13.4 18.4m716.3 172.8L1413 502.8M1540.8 387l-9.2-2.1-13.4-9.2M646.7 16.3l-11.3 9.2-29.7 23.3m370.1 334l89 114.4 35.3-25.4M960.9 86.9L944 89m191.4-83.3l-6.5-5.7M104.3 655.4l-56.5-92.5M179.1 529l12 16.2 21.2 25.4 41.7 48m75.5 356L312.2 1080m74.6-307.3l20.5-34.6m386.2 3.5l-45.2-57.9L706 719l43.1 57.9 44.4-35.3m173.1 55.8l69.9-55.8 3.5-12.7 101-83.3M180.5 582l9.9-4.9m279-133.6l-11.3 51.6-12.7 21.9m-43.1 464.7v21.9l-.7 37.4-1.3 39M826 716.2l-3.5 2.1-1.4 1.4-13.4 9.9-14.1 12m199.8 317.1l36.5 21.3m248.8-124.4l-12.7-5-27.5-10.6-19.1-9.9M1920 61.8l-54.4 133.9-15.5 13.4-20.5 29.7-5.7 26.8-1.4 26.8 4.9 30.4 8.5 21.2 70.6 65 6.4 2.1h6.4l.7-.6m-54.4-214.9l32.5 30.4 9.2.7h10.6l2.1-.8m-268.4 532.6l-86.2-113.7-118.7-149-33.9-39.5-4.2-17.6 10.6-19.1 49.4-32.5 23.3-16.2 16.9-8.5m398.5-135.7l-2.8 27.6 6.3 32.5 9.2 9.9" class="st15"/><path d="M1407.3 891.3l-20.5-6.4-37.4-14.1-50.8 1.4-15.5-50.1-4.2-5-12-14.8-7.8-9.9-7.8-9.9m-.1 95.4l47.3-5.7m382.3 207.8l201.1-156.9 24.7 9.2 13.4 16.9m-418.8 76.3l25.4-25.4 26.8-43.1 14.8-16.2 17.7-8.5 14.1-1.4 17.7-1.4 40.3-10.6 19.1-11.3 56.5-13.4 86.2 13.4 65-38.8L1920 835m-551.6-318l-28.2 20.5-21.9 17.7-9.9 7.1 166.7 213.3 55.8 72 33.2 42.4 9.9 12.7 8.5 9.9 3.5 19.8 26.8 28.2 9.2 13.4-2.8 19.1 10.6 21.9 30.4 40.3-28.3 24.8m28.2-24.9l38.8-33.9-4.9-43.8-36-58.6M1867.7 0l-2.1 9.2-2.8 16.2-5 16.9 1.4 18.4-.7 14.8-2.8 13.4-5.7 16.2-28.2 57.2-35.3 79.8-8.5 26.8.7 23.3 1.4 21.9 5.6 16.2 9.9 24.7 14.1 22.6 41.7 43.8 18.4 17.6 21.2 12.7 21.9 19.8 7.1 6.6m0 79.8l-87.6 67.8 85.5 117.9 2.1 4.5m0 23.6l-3.5 6.6-73.4 74.2-53 22.6-56.5 19.1m98.8-268.4l-79.8 57.2-9.2 7.1-71.3-81.2L1533.7 421l-15.5-45.2-9.2-13.4-4.9-39.6 6.4-65 36.7-84.7 10.6-6.4 12-2.1 20.5 4.2 43.1 8.5 6.3 2.1 8.5 2.8 10.6-2.1 7.1-12 2.1-10.6 3.5-14.8 7.1-24 9.9-15.5 13.4-9.2 40.3-11.3 44.5-13.4 32.5-13.4 21.9-8.5 16.9-5-11.3-24.7-5.7-7.1-2.1-.7m-58.7 304.4l-20.5 12-85.5 65-4.2 2.8-2.1 14.1m77.7-180.8l1.4 1.4 31.1 40.3m-459.8 286l-59.3-71.3 23.3-19.1 57.9 72.7m529.7-98.1l-7.8 12.7-178 147.6-12 9.2M1326.2 0l2.7 2.1 8.3-2.1m406.2 690l-91.8 68.5 81.9 89 24 11.3 29.7-2.1 31.1-12.7h10.6l14.1 8.5M1602.9 30.4l-17.7 7.8-75.6 105.2-4.2 7.1-24.7 38.8m-64.2 5.6l9.9 11.3 8.5 14.1-2.8 20.5-8.5 11.3-59.3 49.4-2.8-4.2-21.9-28.2-3.5-5 80.4-69.2m147.6 695l4.9-14.8 4.9-14.1-20.5-27.5-11.3 7.1-11.3 7.1M1267.2 0l8.1 13.4 15.5 22.6 125.7 158.9m-164.6 411.8l26.8-19.8 13.4-11.3 16.2-13.4m291.8 368.6l9.2-21.9 21.2-28.2 15.5-25.4 7.1-18.4-.7-18.4-12-21.2-29-35.3L1413 502.8m160.9-108l-42.4-9.9-13.4-9.2m-239.4 579.9l-12.7-5-14.8-5.7m568.5-37.4l21.2 3.5 37.4-2.8 41.7 10.6M1742 976l-48 1.4m-9.9-377.8l60.7 69.9m-111.5-492.2l-30.4 134.9 86.9 17" class="st15"/></g><g id="Local-Outline"><path id="_x2D_-2" d="M119.1 928.7l-7.1 30.4-5.7 24-2.8 14.1-2.1 9.9-12.6 72.9" class="st17"/><path id="_x2D_-3" d="M354.8 0l-85.3 195.6-2.1 5.7-32.5 72.7" class="st17"/><path d="M783.7 840.5l85.5-67.8L1098 592.6l26.8-21.2 9.2-7.1 21.9-19.1" class="st17"/></g><g id="Main-Outline"><path id="_x2D_-4" d="M929.9 250l-12 21.2 24-5.6m0 0l36-14.8 34.6-28.2 55.8-43.1 79.8-65 31.8-30.4 18.4-18.4L1252 4.3l3.8-4.3m-49.7 0l-34 38.2-19.8 20.5-26.1 24-141.3 110.1-30.4 26.8-24.6 30.4" class="st18"/><path id="_x2D_-5" d="M555.5 543.1l6.4-.7 5.6-2.8 5-2.8 179.4-134.9L915 273.3l2.8-2.1M0 241.5l55.5 1.4 19.8 2.1 52.3 5.7 21.2 4.2 9.2 1.4 21.2 4.2 11.3 2.1 44.5 11.3 45.2 16.9 34.6 14.8 41.7 22.6 18.4 12.7 17.6 11.3 30.4 27.6 46.6 63.6 35.3 48.7 34.6 43.1 2.1 1.4 1.4 1.4 1.4 1.4 5.7 2.8 5.6.7" class="st18"/><path id="_x2D_-6" d="M1251.2 5l.7-.7 3.8-4.3" class="st18"/><path id="_x2D_-7" d="M1546.9 0l24.2 16.3 31.8 14.1 32.5 9.9 33.9 4.2 28.2.7 29.7-3.5 26.1-3.5 28.2-8.5 57.2-19.8 21.9-9.9" class="st18"/></g><path id="Throughway-Ramp-Outline" fill="none" stroke="#7f7f7f" stroke-linejoin="round" stroke-width="16.059" d="M1054.2 410.4l4.9 4.2 4.9 2.8 5.6.7h5l4.9-2.1 4.2-2.8 3.5-4.2 2.1-4.9V399l-.7-4.2-2.8-8.5m91.2 118l-7.1-2.8-6.4-2.1h-7.1l-4.2 1.4-3.5 2.8-4.2 4.2-2.8 5.7-.7 4.9v4.2l1.4 4.9"/><path id="Parking" d="M0 100.7l13.1-18L0 72.5v28.2m187.6 705.1l57.9 29.7 16.2-24.7-54.4-41-19.7 36M205.2 577l33.9 38.8 2.8 7.1v8.5l-2.8 5.6 9.2 8.5 9.2-9.9 3.5-17-43.8-50.8-12 9.2m210.5 5l24 24 14.8-13.4 38.1-35.3 12.7-12.7-29.7-36.7-59.9 74.1m122.2 28.2l19.8 27.5 23.3-17-29.7-34.6-13.4 8.5v15.6m74.9 65.7l65.7 79.1 6.4-4.9-65.7-79.8-6.4 5.6m84-510.6l20.5 23.3 15.5-36-21.2-21.2-14.8 33.9m4.9 553l45.9 59.3 1.4-.7 41-33.2-49.4-62.8-37.4 30.4-1.5 7M929.9 65.7l22.6 31.8L992 69.9l-26.1-32.5-36 28.3m26.8 319.9l100.3 130 27.5-21.9-9.9-12.7-89.7-118.6-28.2 23.2m279-240.1l33.9 45.9 81.9-66.4-36-44.5-55.1 43.8-24.7 21.2m91.8 134.2l21.2 26.8 12.7-9.2 10.6-9.9-22.6-26.1-9.9 7.8-12 10.6M1682 612.3l57.2 68.5 17.7-12.7-60.7-67.1-14.2 11.3z" class="st20"/><path id="Square" fill="#feefda" d="M1146 304.4l18.4-14.8 32.5-25.4 36 45.9-19.8 16.2-31.1 24-10.6 9.2 19.8 26.1 7.8-5-7.8-9.9-.7-12 7.8-11.3 13.4-4.9 19.1 2.8 14.1 5 21.2 15.5 4.9 9.9 5.7 21.9-1.4 26.8-2.8 10.6-9.2 6.4-9.2 1.4-9.2-1.4-11.3-12.7-7.8 6.4 17.7 21.2-5.7 4.2-9.2 6.4-17.7-19.8-20.5 15.5 32.5 42.4-3.5 3.5-5.7 5L1019.5 262l-3.5-7.8v-6.4l2.1-7.8 4.9-6.4 41-34.6 18.4 21.2 4.9 7.1 21.2 26.8L1093 267l2.8 3.5 2.1-2.1h5l3.5 3.5-.7 4.2-2.8 2.8 7.8 9.2 2.8-2.1 3.5-.7 2.8 3.5v5l-2.8 3.5 7.8 7.1 4.9-1.4 3.5 1.4.7 4.9-3.5 2.8 2.1 2.8 13.5-10.5m-14.2 81.9l46.6 60 21.2-16.9-46.6-60-21.2 16.9m67.1 10.6l17 21.2 6.3-4.9-16.9-21.2-6.4 4.9M1067.6 286l41 51.6 12.7-9.2-2.8-4.2-2.1 2.1h-4.2l-4.2-3.5.7-4.9 2.1-2.1-7.1-8.5-2.8 1.4-3.5-.7-2.8-3.5v-4.2l2.8-2.1-7.1-8.5-2.1 1.4h-4.2l-2.1-2.1-2.1-4.9 3.5-3.5-2.8-3.5-12.9 8.9m129.9 76.3l1.4 7.1 27.5 37.4 24.7-18.4 14.1 17.7-24.7 19.1 3.5 5.6 4.2 2.8 5.7 1.4h6.4l4.9-2.8 2.1-4.2 2.1-9.2.7-7.8v-8.5l-.7-8.5-2.8-9.9-3.5-8.5-7.8-7.8-7.1-6.4-9.9-5.6-9.9-3.5-9.2-1.4h-9.9l-7.1 2.1-3.5 4.2-1.2 5.1M990.6 212.6l1.4-2.8 4.9-4.2 17-12.7 8.5 10.6-15.5 12.7-6.4 4.9-4.2-.7-5.7-7.8m-98.2 95.3l31.1-24 3.5-2.8 12-2.8 9.9 4.2 49.4 62.2 14.1 29.7 73.4 98.2-4.9 3.5-6.3 4.9-89.7-118.6-28.2 23.3 100.3 130 27.5-21.9 5.7-3.5 4.9-4.2 46.6 63.6-13.4 9.9-8.5 5.7-1.4-2.1-3.5-3.5-10.6-14.8-17-22.6-41 31.8-136.3-173 42.4-33.2-16.2-20.9-19.1 14.1-7.1-9.2-17.6-24z"/><g id="Footway-Fill"><path d="M348.6 192.8l10.6 10.6M986.4 344l-12-15.5m76.2-84.1l-16.9 12.7m507.1-87.6l-35.3-19.1M1.9 13.4L9 4.2M1091.6 508.5l-31.1 18.4-119.3-147.6 33.2-30.4 12-4.9 21.2 35.3 49.4 65 24 31.8 9.2 14.1 1.4 18.3 30.4 45.2 3.5 3.5 2.8 2.1 5.6 5 14.8 9.2 18.4 11.3 154 207.6 48 69.2 17.7 23.3 9.9 18.4 19.1 35.3 21.9 61.4 27.9 79.9m-316.8-506.4l-37.4 29 12.7 16.2 14.8 19.1 124.3 151.1-4.2 3.5-1.4 1.4L1090.9 911l2.1 18.4 5.7 11.3 12.7 14.8 5 6.3M974.3 348.9l-33.2-41-12-16.2-5.7-7.8-8.5-10.6-16.2-22.6L819.6 144 704.8 0m836 1035.4l-14.1-35.3-30.4-73.5-21.2-51.5-14.1-34.6-12-21.9-7.1-12.7-10.6-15.5-15.5-24-137-179.4-38.8-43.8-4.9-15.5-15.5-19.1-39.6-50.8-67.8-88.3-63.6-84 30.4-25.4-21.9-27.6 15.5-28.9 79.8-66.4 32.5-30.4 41.7-43.8 38.1-39.5 4.2-4.9 6.3-4.9L1285.8 0m233 0l22 12.7m-44.5 913.9l26.8-60.7 7.8-18.4m-419.5 108.1l63.6-49.4 105.9-82.6 2.1-1.4 38.1-29.7m-468.2 13.3l33.9-26.8 221-173.7 3.5-2.8M79.4 1080l13.6-78.5 2.1-8.5m-35 87l1.1-6.5-39.6-6.4M342.2 0L254 195.6l-73.4 55.8-21.2-4.2-76.3-12.7-48-4.9-35-1.9m1078.8 32.2l65.7 82.6 69.2 87.6 24 30.4 16.2 19.1 4.9 4.2M551.3 843.3l8.5 1.4 10.6-3.5 6.3-12 3.5-6.4 13.4-34.6-79.8-103.1 5.7-5.7 12.7-5.6 6.4-2.8-6.4-10.6-4.2-7.8 38.8-28.2 19.8-15.5M1248.7 0l3.2 4.3 10.6 15.5 2.1 3.5-12 51.6-7.1 7.1-5.7 5.6-55.1 19.1M1069 37.5L1045.7 60l-7.1 1.4-7.1-3.5-4.2-5.7-.7-11.3 22.6-19.8h9.2l8.5 7.1 2.1 9.3M941.2 307.9l-8.5 6.4-22.6 17.7-132.8 103.8-115.8 89.7-21.9-6.4-11.3-2.8-44.5 35.3-11.3-14.8-12.7-17.7-33.9-42.4L396.6 320l-17.7-7.8-95.3-43.8-10.6-31.8 8.5-29 2.1-7.1L371.4 0m448.9 0L908 111.6l62.9 82.6-22.6 17.6-16.3 12.8-13.4 11.3-19.8 14.8-91.8 72.8-59.3 45.9-187.9 149.7-20.5 16.2-15.5 12-10.6 13.4-4.9 9.2-4.9 11.3-31.8 24-27.6 28.3-6.4 6.4-33.2 44.5-4.2-1.4-5.7-1.4-40.2 39.5L302 844.7l-45.2 87.6M1192.7 0l-13.5 14.9-14.8 18.4-18.4 21.8-46.6 36.7L980 187.2l-9.2 7.1m34.6-110.9l-3.5-2.8-3.5-.7-4.2-.7-3.5 1.4-2.8 2.8-2.1 3.5-.7 4.2.7 3.5 2.1 3.5 2.8 2.8 3.5 1.4h2.8l3.5-1.4 3.5-2.1 2.8-2.8.7-4.2v-3.5l-2.1-4.9M638.9 390.6l29.7-80.5 3.5-30.4-9.9-33.9 70.6-61.4 12-43.1M528 652.6l-7.8 3.5-10.6 4.2-19-23.3-19.1-8.5-16.2 2.8-11.3 2.1M980.3 0l5.4 4.3 17.7 10.6 13.4 1.4 21-16.3M0 258.2l11 .3 51.6 2.1 51.5 9.2 31.1 5.7 8.5 1.4 62.9 16.2 69.2 25.4 74.2 38.1m14.8-184.3l45.9 54.4 110.9 130.7 59.3 70.6M886.8 7.1l9.9-6.4 25.4 33.9-8.5 6.4-26.8-33.9M509.6 660.4l9.9 19.1m955.6 96l-3.5 2.8 1.4 10.6-2.1 10.6-4.2 7.1-17.7 12m-17.7-28.3l19.1-12 16.2-.7 5 .7-29.7 27.5m-123.6-250.7l222.5 283.2M281.5 207.6l-14.1-6.3-13.4-5.7m-94.7 51.6l-1.4 9.2-4.2 20.5m1084.8 134.9l-24.7 18.4-33.9 27.6m-67.8-88.4l32.5-26.8 18.4-16.2 42.4-31.8M775.9 831.3l86.2-67.8 256.4-200.6 7.1-5.7M715.9 330.5l9.2 11.3 13.4 17 9.2 10.6m533.2 454.1l-3.5-4.9-1.4-1.4-10.6-13.4-7.8-9.9m-207-549.5l6.3-12-28.2 7.8-5.6-6.4-10.6-11.3-5.6-6.4-9.9-10.6-12-12.7-4.9-5.7M758.1 0L932 224.6m182.2-202l-9.9-6.4-11.3 2.1-9.9 6.4-14.1 12.8m-63.6 45.9l26.1-25.4M877.6 14.1l9.2-7.1M1004 98.9l9.9 12.7m-26.1-13.4l-23.3 17.6m26.1-35.3l-7.1-9.9-22.6 16.2m24.8-82.5l4-4.3m-57 0l21.9 24.7 9.2-7.8m262.7 46l19.1 19.1M0 16.2l1.9-2.7m23.3 158.8L0 193.9m254 424.8l-3.5 29M1355.8 1080l-5.1-7.9 15.5-7.8 12.7-9.9 12-10.6 24-36 22.6-7.8m37.6-124.9l48-9.2m-126.4 37.4l-40.3-19.1-24-4.2h-26.8l-78.4 14.1m141.9-32.5h-14.8l-71.3-39.5M420.6 226.7l32.5-7.8 12-29.7m113.7 131.4l-37.4 3.5-88.3-105.2M578.8 351l14.8-13.4m-52.2-13.4l-9.9 33.2m137-47.3l64.3 7.1m154 461.8l19.1 20.5 11.3 13.4 12 13.4 14.1-10.6 147.6 95.3" class="st13"/><path d="M662.2 245.8L631.8 231h-17.7L468 54.4l-32.5-39.6-17 2.2M468 54.4l-62.9-4.2M95.1 993l6.3-46.6-14.1-31.8M1547.1 173.1l-41.7-22.6M1787.9 291l26.8-2.1M1681.3 55.8l-.7 8.5-.7 18.4 8.5 20.5M1251.2 697.8l69.9 94.6 48 69.2 17.7 23.3 9.9 18.4 19.1 35.3 21.9 61.4 27.9 79.9m-214.4-305.8l12 14.8-4.2 3.5-1.4 1.4-6.4 4.2m308.8 282l-15.7-36.2-17.7-43.8-30.4-73.5L1475 875l-14.1-34.6-12-21.9-7.1-12.7-10.6-15.5-15.5-24-137-179.4-27.5-31.1m0-518.3l13.4-14.1 4.2-4.9 6.3-4.9L1285.8 0m289.4 0l3.7 2.1 18.4 10.6 21.9 8.5 17.7 7.1 22.6 2.8 19.1 1.4h36.7l20.5-2.8 26.1-5.6 51.6-17.7L1829 0m-310 0l66.2 38.2 45.9 12.7 50.1 4.9 47.3-4.9L1773 41l73.5-23.3 19.1-8.5 19.8-7.8 3.8-1.4m-392.9 926.6l26.8-60.7 7.8-18.4m-279.7-.7l29.7-23.3 2.1-1.4 38.1-29.7M1251.2 476l2.8 3.5 4.9 4.2M1920 125.6l-9.2 27 9.2 2.9m0-113.9l-4.2-1.3-19.1 27.5-21.9 53.7-33.2 75.6-4.2 11.3-2.8 6.4-12 31.1-7.8 24.7V289m-67.8-60.2l-15.5 38.9 9.2 50.1 19.1 8.5 11.3 9.9-1.4 12.7-7.1 17 2.1 9.9-11.3 33.2-1.4 17.7 2.1 17.7 15.5 35.3-18.4 34.6m-500-510.8l.7.7 10.6 15.5 2.1 3.5-12 51.6-1.4 1.4m423 315.1l4.9 11.3 2.8 7.1 15.5.7 9.2-2.1 7.8-10.6 4.2-10.6 9.9-7.8 12.7-4.9 15.5-1.4 5.7-7.1m-80.4 43.7l36.7 15.5 35.3 19.1 16.2 1.4 13.4-4.9 2.1-7.8-.7-19.8-8.5-21.9-12-15.5M1885.4 1.4l-1.4 17.7-10.6 29-14.1 48.7-64.3 151.8-6.4 22.6-.7 19.8 1.4 24 4.2 12-7.8 3.5-14.8 5.6m12.8 104.6l-14.1 38.8m146.2-439.2l4.2-5.5m-13.4 374.1L1920 423m-444.9 352.5l-3.5 2.8 1.4 10.6-2.1 10.6-4.2 7.1-17.7 12m-17.7-28.3l19.1-12 16.2-.7 5 .7-29.7 27.5m-123.6-250.7l223.9 285.3L1569 875l21.2 26.8-4.2 30.4m132.7-507l19.1-11.3 15.5-5h19.1l12.7 4.2 63.6 26.8 3.5 7.1 9.9 4.9 20.5 23.3m-45.2-266.8l12.7.7 9.2 2.1 19.1 11.3 14.8 11.3 2.8 7.1m-615.1 582.6l-3.5-4.9-1.4-1.4-10.6-13.4-7.8-9.9m98.2 286.1l-5.1-7.9 15.5-7.8 12.7-9.9 12-10.6 24-36 22.6-7.8m37.6-124.9l48-9.2m-126.4 37.4l-40.3-19.1-24-4.2h-26.8l-54.4 9.9m117.9-28.3h-14.8l-71.3-39.5m471.1-377.9l-40.3 26.8-2.8 3.5m3.5-76.9l2.1 7.1 8.5 6.3 12-2.1 8.5-7.1 3.5-9.9-2.8-8.5-7.8-4.9-9.9.7M1639.6 179.4l6.4 21.2 8.5 2.8 26.8 8.5 29.7 7.1 34.6 8.5m-34.6-8.6l-4.2 21.9-17.7 17.6-23.3 8.5-21.2-5.7 4.2-15.5m5.7-42.3l.7 16.2" class="st13"/></g><g id="Service-Fill"><path d="M1164.9 1080l15.7-23.4 7.8-22.6 2.1-19.1 9.2-29m-120.8 16.3l30.4 19.8-18.4 41.7-7 16.4M99.3 488l22.6-10.6 23.3 3.5 33.9 48 9.2 45.9 2.1 2.1 35.3 41-4.9 24-52.3 56.5-88.3 96.8-74.1 80.6m1534.7-262l-93.9-118-33.9-39.5-4.2-17.6 10.6-19.1 49.4-32.5 23.3-16.2 16.9-8.5" class="st14"/><path d="M1407.3 891.3l-20.5-6.4-37.4-14.1-50.8 1.4-15.5-50.1-4.2-5-12-14.8-7.8-9.9L1141 645.5l-4.9-5.7-14.8-18.4-13.4-16.2-9.9-12.7m-834.8 46.7l-12.7 8.5-36 24-77.7 96.8L96.5 825l-5.7 19.8 3.5 9.2 11.3 5.7 33.9 16.2 7.1 3.5 110.2 53 7.1 2.1 65.7 40.3 20.5 2.1 52.3 4.9 55.8 3.5 61.4 4.2 4.2-.7 2.8-3.5 64.3-139.8 2.8-9.2 20.5-53.7-47.3-66.4-34.6-42.4-7.1-8.5-5-9.2-2.8-4.9 3.5-57.2-2.1-16.9-10.6-7.1-6.4-5-9.2-7.8m291.1 283.3l-5.6 31.1 3.5 10.6 8.5 9.9 12.7 4.9 14.8 2.8 29 1.4 105.9-.7 67.8 56.5 29.7 12 7.1 22.6 21.9 10.6 7.8-12 6.4-4.2h106.6l13.4-19.1 6.4-36.7 2.1-38.1 29.7-14.1 47.3-5.7M1057 991.6l-29.7 11.3-11.3 17.6-22.6 38.1-12.8 21.3M1221.5 892l-81.2 66.4-24 3.5-66.4 7.1m451.3 56.5l25.4-25.4 14.1-22.6M1368.4 517l-28.2 20.5-21.9 17.7-9.9 7.1 166.7 213.3 55.8 72 9.9 12.7M263.9 934.4l9.2-20.5 35.3-67.8 37.4-79.8 9.9-21.2 44.5-62.1 29-45.2 35.3-48 29-19.8h14.8M0 495.8l47.8 67.1L0 618.5m0 17l47 44.6 7.8 35.3L0 770.3m0 102.2l6.1 3.2 7.8 3.5 73.4 35.3 19.1 9.9 12.7 4.2 27.5-49.4m-43 118l50.8 28.2-12.7 54.5m449.2-234.5l-14.1 5-21.2-1.4-85.5-35.3-79.1-39.6-4.2-1.4-15.5-7.8 56.5-98.9 27.5-34.6 6.4-7.8 50.1-41 7.1-5.6 30.4-16.2 6.4-17.7m985.1-112.3l-7.1-9.9-15.5-45.2-9.2-13.4-4.9-39.6 6.4-65 30.4-69.9M633.9 0l12.8 16.3 98.2 125L826 244.4l-93.2 72.7-17 13.4-77 60-45.2-53-14.8-17-113.7-131.2-45.9-53-18.4 14.1-26.1 21.9-26.1 20.5-24.7-6.4-40.3 14.1-14.1-4.9m902.6-157.4l-7.8-5-29-27.5-21.2 17-12 9.9.7 11.3-89 67.8L980 137l-15.5-21.2L944 89l-7.8.7-7.1 5.7-15.5 12-5.6 4.2-21.9 19.1m-17 642l-7.1-9.2-11.3-14.1-17-21.9-7.8-11.3-20.5-32.5m512.9-128.6l-59.3-71.3 23.3-19.1 57.9 72.7M177.7 206.9l-46.6-35.3-20.5 26.1-19.1 25.4-4.2-2.8-62.1-48L0 152.9m593 464.4l-20.5 14.8-31.8 22.6-8.5 5.6-7.1 4.9M425.4 0l-1.9 4.3-5 12.7-13.4 33.2-56.5 142.7M1326.2 0l2.7 2.1 8.3-2.1M638.9 390.6l-48 37.4-17.7 13.4-51.5-65.7-84.1-105.9-33.2-11.3-45.2-55.1M2.2 0L9 4.3l87.6 58.6L124 17 98.4 0m837.8 89.7l-58.6-75.6L866.5 0M110.6 197.8l69.9 53.7-1.4 9.2M0 413.1l10.3-.6 31.1 4.2L99.3 488l25.4 86.2 3.5 33.2 13.4-7.1m233.2-259.2L360 356.6l-12 12.7-103.8-39.6L199 443.4M91.5 223.2L83 234.5l-7.8 10.6m1465.6-144.8l-31.1 43.1-4.2 7.1-24.7 38.8m-64.3 5.6l9.9 11.3 8.5 14.1-2.8 20.5-8.5 11.3-59.3 49.4-2.8-4.2-21.9-28.2-3.5-5 80.4-69.2M485.6 792.4l42.4 18.4 34.6 13.4 14.1 4.9 17 7.1M214.4 671.7l12.7 26.8L201 743l6.4 26.8 3.5 25.4 26.1 19.1 24.7-3.5 14.8-1.4 21.9 34.6 3.5.7 6.3 1.4m-206.8 161l-8.5-5.7-93-61m1109.3 81.6l10.6-6.4h50.1l20.5-.7 10.6 12.7 3.5 13.4m336.3-199.8l-9.9 6.4M1267.2 0l8.1 13.4 15.5 22.6 125.7 158.9M412.8 0l10.6 4.3m149.8 437.1l-47.3 35.3-21.2 15.5m67.8 139.9l-5.7-7.8-21.8-31.7M148.8 255l-3.5 20.5-4.2 24L110 421.7m327.6-151.9L379 312.2l-22.6 16.2m895.5 278.3l26.8-19.8 13.4-11.3 16.2-13.4M751.9 401.9l25.4 33.9 14.1 17 3.5 5 16.2 20.5 13.4 18.4m716.3 172.8L1413 502.8M1540.8 387l-9.2-2.1-13.4-9.2M646.7 16.3l-11.3 9.2-29.7 23.3m370.1 334l89 114.4 35.3-25.4M960.9 86.9L944 89m191.4-83.3l-6.5-5.7M104.3 655.4l-56.5-92.5M179.1 529l12 16.2 21.2 25.4 41.7 48m75.5 356L312.2 1080m74.6-307.3l20.5-34.6m386.2 3.5l-45.2-57.9L706 719l43.1 57.9 44.4-35.3m173.1 55.8l69.9-55.8 3.5-12.7 101-83.3M180.5 582l9.9-4.9m279-133.6l-11.3 51.6-12.7 21.9m-43.1 464.7v21.9l-.7 37.4-1.3 39M826 716.2l-3.5 2.1-1.4 1.4-13.4 9.9-14.1 12m199.8 317.1l36.5 21.3m248.8-124.4l-12.7-5-27.5-10.6-19.1-9.9M1920 61.8l-54.4 133.9-15.5 13.4-20.5 29.7-5.7 26.8-1.4 26.8 4.9 30.4 8.5 21.2 70.6 65 6.4 2.1h6.4l.7-.6m-54.4-214.9l32.5 30.4 9.2.7h10.6l2.1-.8m-268.4 532.6l-86.2-113.7-118.7-149-33.9-39.5-4.2-17.6 10.6-19.1 49.4-32.5 23.3-16.2 16.9-8.5m398.5-135.7l-2.8 27.6 6.3 32.5 9.2 9.9" class="st14"/><path d="M1407.3 891.3l-20.5-6.4-37.4-14.1-50.8 1.4-15.5-50.1-4.2-5-12-14.8-7.8-9.9-7.8-9.9m-.1 95.4l47.3-5.7m382.3 207.8l201.1-156.9 24.7 9.2 13.4 16.9m-418.8 76.3l25.4-25.4 26.8-43.1 14.8-16.2 17.7-8.5 14.1-1.4 17.7-1.4 40.3-10.6 19.1-11.3 56.5-13.4 86.2 13.4 65-38.8L1920 835m-551.6-318l-28.2 20.5-21.9 17.7-9.9 7.1 166.7 213.3 55.8 72 33.2 42.4 9.9 12.7 8.5 9.9 3.5 19.8 26.8 28.2 9.2 13.4-2.8 19.1 10.6 21.9 30.4 40.3-28.3 24.8m28.2-24.9l38.8-33.9-4.9-43.8-36-58.6M1867.7 0l-2.1 9.2-2.8 16.2-5 16.9 1.4 18.4-.7 14.8-2.8 13.4-5.7 16.2-28.2 57.2-35.3 79.8-8.5 26.8.7 23.3 1.4 21.9 5.6 16.2 9.9 24.7 14.1 22.6 41.7 43.8 18.4 17.6 21.2 12.7 21.9 19.8 7.1 6.6m0 79.8l-87.6 67.8 85.5 117.9 2.1 4.5m0 23.6l-3.5 6.6-73.4 74.2-53 22.6-56.5 19.1m98.8-268.4l-79.8 57.2-9.2 7.1-71.3-81.2L1533.7 421l-15.5-45.2-9.2-13.4-4.9-39.6 6.4-65 36.7-84.7 10.6-6.4 12-2.1 20.5 4.2 43.1 8.5 6.3 2.1 8.5 2.8 10.6-2.1 7.1-12 2.1-10.6 3.5-14.8 7.1-24 9.9-15.5 13.4-9.2 40.3-11.3 44.5-13.4 32.5-13.4 21.9-8.5 16.9-5-11.3-24.7-5.7-7.1-2.1-.7m-58.7 304.4l-20.5 12-85.5 65-4.2 2.8-2.1 14.1m77.7-180.8l1.4 1.4 31.1 40.3m-459.8 286l-59.3-71.3 23.3-19.1 57.9 72.7m529.7-98.1l-7.8 12.7-178 147.6-12 9.2M1326.2 0l2.7 2.1 8.3-2.1m406.2 690l-91.8 68.5 81.9 89 24 11.3 29.7-2.1 31.1-12.7h10.6l14.1 8.5M1602.9 30.4l-17.7 7.8-75.6 105.2-4.2 7.1-24.7 38.8m-64.2 5.6l9.9 11.3 8.5 14.1-2.8 20.5-8.5 11.3-59.3 49.4-2.8-4.2-21.9-28.2-3.5-5 80.4-69.2m147.6 695l4.9-14.8 4.9-14.1-20.5-27.5-11.3 7.1-11.3 7.1M1267.2 0l8.1 13.4 15.5 22.6 125.7 158.9m-164.6 411.8l26.8-19.8 13.4-11.3 16.2-13.4m291.8 368.6l9.2-21.9 21.2-28.2 15.5-25.4 7.1-18.4-.7-18.4-12-21.2-29-35.3L1413 502.8m160.9-108l-42.4-9.9-13.4-9.2m-239.4 579.9l-12.7-5-14.8-5.7m568.5-37.4l21.2 3.5 37.4-2.8 41.7 10.6M1742 976l-48 1.4m-9.9-377.8l60.7 69.9m-111.5-492.2l-30.4 134.9 86.9 17" class="st14"/></g><g id="Pedestrian-Fill"><path id="_x2D_-10" fill="none" stroke="#feefda" stroke-linecap="round" stroke-linejoin="round" stroke-width="12.044" d="M549.2 560.8l17.7 22.6 19.8 25.4 6.4 8.5 121.5 154 12.7-4.2 48.7 64.3 2.8 2.8 4.9 6.4"/></g><g id="Local-Fill"><path id="_x2D_-11" d="M119.1 928.7l-7.1 30.4-5.7 24-2.8 14.1-2.1 9.9-12.6 72.9" class="st14"/><path id="_x2D_-12" d="M354.8 0l-85.3 195.6-2.1 5.7-32.5 72.7" class="st14"/><path d="M783.7 840.5l85.5-67.8L1098 592.6l26.8-21.2 9.2-7.1 21.9-19.1" class="st14"/></g><path id="Throughway-Ramp-Fill" fill="none" stroke="#ffffab" stroke-linecap="round" stroke-linejoin="round" stroke-width="12.044" d="M1054.2 410.4l4.9 4.2 4.9 2.8 5.6.7h5l4.9-2.1 4.2-2.8 3.5-4.2 2.1-4.9V399l-.7-4.2-2.8-8.5m91.2 118l-7.1-2.8-6.4-2.1h-7.1l-4.2 1.4-3.5 2.8-4.2 4.2-2.8 5.7-.7 4.9v4.2l1.4 4.9"/><g id="Throughway-Fill"><g id="Throughway-Outline"><path id="_x2D_-8" d="M729.7 0l58.2 73.5 122.2 151.8 8.5 10.6 11.3 14.1 12 15.5 21.2 27.5 91.1 117.2 45.9 61.4 42.4 55.8 13.4 17.7 111.6 138.4 69.9 95.4 12.7 17 18.4 25.4 12.7 22.6 26.1 47.3 26.1 55.8 3.5 7.8 52.3 115.8 4 9.3m32.9.1l-9.3-21.3-15.5-33.2-73.4-167.4-13.4-29.7-16.2-27.5-30.4-42.4-69.9-91.1-45.9-60.7-75.1-102.4-91.1-118-85.5-106.6-22.6-28.9-23.3-31.1-6.4-7.8-7.8-9.9-54.4-71.3L786.1 0" class="st24"/><path id="_x2D_-9" d="M1251.2 663.2l16.2 20.5 69.9 95.4 12.7 17 18.4 25.4 12.7 22.6 26.1 47.3 26.1 55.8 3.5 7.8 52.3 115.8 4 9.3m33-.1l-9.3-21.3-15.5-33.2-73.4-167.4-13.4-29.7-16.2-27.5-30.4-42.4-69.9-91.1-45.9-60.7-.7-.7" class="st24"/></g><g id="Main-Fill"><path id="_x2D_-13" d="M929.9 250l-12 21.2 24-5.6m0 0l36-14.8 34.6-28.2 55.8-43.1 79.8-65 31.8-30.4 18.4-18.4L1252 4.3l3.8-4.3m-49.7 0l-34 38.2-19.8 20.5-26.1 24-141.3 110.1-30.4 26.8-24.6 30.4" class="st25"/><path id="_x2D_-14" d="M555.5 543.1l6.4-.7 5.6-2.8 5-2.8 179.4-134.9L915 273.3l2.8-2.1M0 241.5l55.5 1.4 19.8 2.1 52.3 5.7 21.2 4.2 9.2 1.4 21.2 4.2 11.3 2.1 44.5 11.3 45.2 16.9 34.6 14.8 41.7 22.6 18.4 12.7 17.6 11.3 30.4 27.6 46.6 63.6 35.3 48.7 34.6 43.1 2.1 1.4 1.4 1.4 1.4 1.4 5.7 2.8 5.6.7" class="st25"/><path id="_x2D_-15" d="M1251.2 5l.7-.7 3.8-4.3" class="st25"/><path id="_x2D_-16" d="M1546.9 0l24.2 16.3 31.8 14.1 32.5 9.9 33.9 4.2 28.2.7 29.7-3.5 26.1-3.5 28.2-8.5 57.2-19.8 21.9-9.9" class="st25"/></g><path id="_x2D_-17" d="M729.7 0l58.2 73.5 122.2 151.8 8.5 10.6 11.3 14.1 12 15.5 21.2 27.5 91.1 117.2 45.9 61.4 42.4 55.8 13.4 17.7 111.6 138.4 69.9 95.4 12.7 17 18.4 25.4 12.7 22.6 26.1 47.3 26.1 55.8 3.5 7.8 52.3 115.8 4 9.3m32.9.1l-9.3-21.3-15.5-33.2-73.4-167.4-13.4-29.7-16.2-27.5-30.4-42.4-69.9-91.1-45.9-60.7-75.1-102.4-91.1-118-85.5-106.6-22.6-28.9-23.3-31.1-6.4-7.8-7.8-9.9-54.4-71.3L786.1 0" class="st26"/><path id="_x2D_-18" d="M1251.2 663.2l16.2 20.5 69.9 95.4 12.7 17 18.4 25.4 12.7 22.6 26.1 47.3 26.1 55.8 3.5 7.8 52.3 115.8 4 9.3m33-.1l-9.3-21.3-15.5-33.2-73.4-167.4-13.4-29.7-16.2-27.5-30.4-42.4-69.9-91.1-45.9-60.7-.7-.7" class="st26"/></g></g><g id="metro"><g id="Metro"><circle cx="1282.8" cy="676.8" r="9"/><path d="M1288.1 682.2h-2.1v-9.1l-2 9.1h-2.2l-2-9.1v9.1h-2.2v-10.9h3.3l2 8.6 1.9-8.6h3.3v10.9z" class="st20"/><text class="st27 st28 st29" transform="translate(1261.72 695.735)">Pecherska</text><text class="st30 st28 st29" transform="translate(1261.72 695.735)">Pecherska</text></g></g><g id="c"><text class="st28 st31" transform="translate(1828 1071)">© Mapcreator</text><text class="st28 st31" transform="translate(1876.578 1071)">|</text><text class="st28 st31" transform="translate(1883.102 1071)">OSM.org</text></g><g id="mark"><path id="mark_1_" fill="#2196f3" d="M936.7 467.9c-7.9 0-14.2 6.3-14.2 14.1v.2c0 2.1.5 4.2 1.4 6.2.1 0 12.8 25.2 12.8 25.2l12.7-24.9c.9-2 1.4-4.2 1.3-6.5.1-7.8-6.1-14.3-14-14.3m0 22.7c-4.7 0-8.5-3.8-8.5-8.5s3.9-8.5 8.5-8.5c4.7 0 8.5 3.9 8.5 8.5s-3.8 8.5-8.5 8.5"/></g><g id="text"><g id="Throughway"><g id="fixtextpath1"><text class="st27 st28 st33" transform="rotate(53.209 118.37 1248.232)">L</text><text class="st27 st28 st33" transform="rotate(53.209 115.589 1253.784)">e</text><text class="st27 st28 st33" transform="rotate(53.209 112.808 1259.336)">s</text><text class="st27 st28 st33" transform="rotate(53.209 110.308 1264.327)">i</text><text class="st27 st28 st33" transform="rotate(53.209 109.198 1266.546)"></text><text class="st27 st28 st33" transform="rotate(53.232 108 1268.7)">U</text><text class="st27 st28 st33" transform="rotate(53.232 104.39 1275.906)">k</text><text class="st27 st28 st33" transform="rotate(53.261 102.16 1280.228)">r</text><text class="st27 st28 st33" transform="rotate(53.261 100.495 1283.549)">a</text><text class="st27 st28 st33" transform="rotate(53.261 97.714 1289.094)">i</text><text class="st27 st28 st33" transform="rotate(53.261 96.603 1291.309)">n</text><text class="st27 st28 st33" transform="rotate(53.237 93.618 1297.485)">k</text><text class="st27 st28 st33" transform="rotate(53.237 91.119 1302.474)">y</text><text class="st27 st28 st33" transform="rotate(53.237 88.62 1307.463)"></text><text class="st27 st28 st33" transform="rotate(53.237 87.23 1310.235)">B</text><text class="st27 st28 st33" transform="rotate(53.237 83.896 1316.89)">o</text><text class="st27 st28 st33" transform="rotate(53.146 80.168 1324.531)">u</text><text class="st27 st28 st33" transform="rotate(53.146 77.388 1330.091)">l</text><text class="st27 st28 st33" transform="rotate(53.146 76.277 1332.311)">e</text><text class="st27 st28 st33" transform="rotate(52.786 69.71 1346.621)">v</text><text class="st27 st28 st33" transform="rotate(52.786 67.21 1351.66)">a</text><text class="st27 st28 st33" transform="rotate(52.786 64.429 1357.262)">r</text><text class="st27 st28 st33" transform="rotate(52.786 62.763 1360.617)">d</text><text class="st28 st33" transform="rotate(53.209 118.37 1248.232)">L</text><text class="st28 st33" transform="rotate(53.209 115.589 1253.784)">e</text><text class="st28 st33" transform="rotate(53.209 112.808 1259.336)">s</text><text class="st28 st33" transform="rotate(53.209 110.308 1264.327)">i</text><text class="st28 st33" transform="rotate(53.209 109.198 1266.546)"></text><text class="st28 st33" transform="rotate(53.232 108 1268.7)">U</text><text class="st28 st33" transform="rotate(53.232 104.39 1275.906)">k</text><text class="st28 st33" transform="rotate(53.261 102.16 1280.228)">r</text><text class="st28 st33" transform="rotate(53.261 100.495 1283.549)">a</text><text class="st28 st33" transform="rotate(53.261 97.714 1289.094)">i</text><text class="st28 st33" transform="rotate(53.261 96.603 1291.309)">n</text><text class="st28 st33" transform="rotate(53.237 93.618 1297.485)">k</text><text class="st28 st33" transform="rotate(53.237 91.119 1302.474)">y</text><text class="st28 st33" transform="rotate(53.237 88.62 1307.463)"></text><text class="st28 st33" transform="rotate(53.237 87.23 1310.235)">B</text><text class="st28 st33" transform="rotate(53.237 83.896 1316.89)">o</text><text class="st28 st33" transform="rotate(53.146 80.168 1324.531)">u</text><text class="st28 st33" transform="rotate(53.146 77.388 1330.091)">l</text><text class="st28 st33" transform="rotate(53.146 76.277 1332.311)">e</text><text class="st28 st33" transform="rotate(52.786 69.71 1346.621)">v</text><text class="st28 st33" transform="rotate(52.786 67.21 1351.66)">a</text><text class="st28 st33" transform="rotate(52.786 64.429 1357.262)">r</text><text class="st28 st33" transform="rotate(52.786 62.763 1360.617)">d</text><path id="tp1" d="M1042 394.1l19.9 26.6 7.9 10.6 7.9 10.6 7.9 10.6 7.9 10.6 7.9 10.6 20.1 26.5" class="st34"/></g><g id="fixtextpath2"><text class="st27 st28 st33" transform="rotate(51.72 149.057 1295.793)">L</text><text class="st27 st28 st33" transform="rotate(51.72 146.277 1301.53)">e</text><text class="st27 st28 st33" transform="rotate(51.72 143.497 1307.268)">s</text><text class="st27 st28 st33" transform="rotate(51.72 140.996 1312.425)">i</text><text class="st27 st28 st33" transform="rotate(51.72 139.886 1314.717)"></text><text class="st27 st28 st33" transform="rotate(52.341 144.027 1302.19)">U</text><text class="st27 st28 st33" transform="rotate(52.341 140.417 1309.537)">k</text><text class="st27 st28 st33" transform="rotate(52.369 138.177 1313.929)">r</text><text class="st27 st28 st33" transform="rotate(52.369 136.512 1317.314)">a</text><text class="st27 st28 st33" transform="rotate(52.369 133.731 1322.97)">i</text><text class="st27 st28 st33" transform="rotate(52.369 132.62 1325.228)">n</text><text class="st27 st28 st33" transform="rotate(52.366 129.818 1331.075)">k</text><text class="st27 st28 st33" transform="rotate(52.366 127.317 1336.16)">y</text><text class="st27 st28 st33" transform="rotate(52.369 124.84 1341.051)"></text><text class="st27 st28 st33" transform="rotate(52.369 123.451 1343.876)">B</text><text class="st27 st28 st33" transform="rotate(52.369 120.116 1350.658)">o</text><text class="st27 st28 st33" transform="rotate(52.369 117.336 1356.313)">u</text><text class="st27 st28 st33" transform="rotate(52.369 114.556 1361.968)">l</text><text class="st27 st28 st33" transform="rotate(52.369 113.445 1364.226)">e</text><text class="st27 st28 st33" transform="rotate(52.361 110.586 1370.11)">v</text><text class="st27 st28 st33" transform="rotate(52.361 108.086 1375.195)">a</text><text class="st27 st28 st33" transform="rotate(52.361 105.306 1380.85)">r</text><text class="st27 st28 st33" transform="rotate(52.361 103.64 1384.237)">d</text><text class="st28 st33" transform="rotate(51.72 149.057 1295.793)">L</text><text class="st28 st33" transform="rotate(51.72 146.277 1301.53)">e</text><text class="st28 st33" transform="rotate(51.72 143.497 1307.268)">s</text><text class="st28 st33" transform="rotate(51.72 140.996 1312.425)">i</text><text class="st28 st33" transform="rotate(51.72 139.886 1314.717)"></text><text class="st28 st33" transform="rotate(52.341 144.027 1302.19)">U</text><text class="st28 st33" transform="rotate(52.341 140.417 1309.537)">k</text><text class="st28 st33" transform="rotate(52.369 138.177 1313.929)">r</text><text class="st28 st33" transform="rotate(52.369 136.512 1317.314)">a</text><text class="st28 st33" transform="rotate(52.369 133.731 1322.97)">i</text><text class="st28 st33" transform="rotate(52.369 132.62 1325.228)">n</text><text class="st28 st33" transform="rotate(52.366 129.818 1331.075)">k</text><text class="st28 st33" transform="rotate(52.366 127.317 1336.16)">y</text><text class="st28 st33" transform="rotate(52.369 124.84 1341.051)"></text><text class="st28 st33" transform="rotate(52.369 123.451 1343.876)">B</text><text class="st28 st33" transform="rotate(52.369 120.116 1350.658)">o</text><text class="st28 st33" transform="rotate(52.369 117.336 1356.313)">u</text><text class="st28 st33" transform="rotate(52.369 114.556 1361.968)">l</text><text class="st28 st33" transform="rotate(52.369 113.445 1364.226)">e</text><text class="st28 st33" transform="rotate(52.361 110.586 1370.11)">v</text><text class="st28 st33" transform="rotate(52.361 108.086 1375.195)">a</text><text class="st28 st33" transform="rotate(52.361 105.306 1380.85)">r</text><text class="st28 st33" transform="rotate(52.361 103.64 1384.237)">d</text><path id="tp2" d="M1068.6 364.5l20.6 26.1 8.1 10.5 8.1 10.5 8.1 10.5 8.1 10.5 8.1 10.5 20.3 26.3" class="st34"/></g></g><g id="Building-1"><text class="st27 st28 st33" transform="translate(1123.704 690.693)">ТП-2884</text><text class="st30 st28 st33" transform="translate(1123.704 690.693)">ТП-2884</text><text class="st27 st28 st33" transform="translate(700.664 754.253)">ТП-5580</text><text class="st30 st28 st33" transform="translate(700.664 754.253)">ТП-5580</text><text class="st27 st28 st33" transform="translate(1245.703 220.693)">Central</text><text class="st27 st28 st33" transform="translate(1244.033 232.693)">Election</text><text class="st27 st28 st33" transform="translate(1234.316 244.693)">Commission</text><text class="st27 st28 st33" transform="translate(1240.422 256.693)">of Ukraine</text><text class="st30 st28 st33" transform="translate(1245.703 220.693)">Central</text><text class="st30 st28 st33" transform="translate(1244.033 232.693)">Election</text><text class="st30 st28 st33" transform="translate(1234.316 244.693)">Commission</text><text class="st30 st28 st33" transform="translate(1240.422 256.693)">of Ukraine</text><text class="st27 st28 st33" transform="translate(13.164 625.713)">РП-432</text><text class="st30 st28 st33" transform="translate(13.164 625.713)">РП-432</text><text class="st27 st28 st33" transform="translate(56.574 848.183)">ТП-7851</text><text class="st30 st28 st33" transform="translate(56.574 848.183)">ТП-7851</text><text class="st27 st28 st33" transform="translate(267.695 970.363)">ТП-319</text><text class="st30 st28 st33" transform="translate(267.695 970.363)">ТП-319</text><text class="st27 st28 st33" transform="translate(41.008 152.883)">ПАТ</text><text class="st27 st28 st33" transform="translate(19.698 164.883)">Укргіпроцукор</text><text class="st30 st28 st33" transform="translate(41.008 152.883)">ПАТ</text><text class="st30 st28 st33" transform="translate(19.698 164.883)">Укргіпроцукор</text><text class="st27 st28 st33" transform="translate(1399.65 75.553)">Башта №4,</text><text class="st27 st28 st33" transform="translate(1405.783 87.553)">Київська</text><text class="st27 st28 st33" transform="translate(1406.899 99.553)">фортеця</text><text class="st30 st28 st33" transform="translate(1399.65 75.553)">Башта №4,</text><text class="st30 st28 st33" transform="translate(1405.783 87.553)">Київська</text><text class="st30 st28 st33" transform="translate(1406.899 99.553)">фортеця</text><text class="st27 st28 st33" transform="translate(1655.884 521.193)">Tsarsky</text><text class="st30 st28 st33" transform="translate(1655.884 521.193)">Tsarsky</text><text class="st27 st28 st33" transform="translate(1382.572 968.603)">Кругла</text><text class="st27 st28 st33" transform="translate(1374.888 980.603)">Башта №2</text><text class="st30 st28 st33" transform="translate(1382.572 968.603)">Кругла</text><text class="st30 st28 st33" transform="translate(1374.888 980.603)">Башта №2</text></g><g id="University-1"><text class="st27 st28 st33" transform="translate(386.808 958.023)">Київський</text><text class="st27 st28 st33" transform="translate(376.822 970.023)">Національний</text><text class="st27 st28 st33" transform="translate(381.964 982.023)">Університет</text><text class="st27 st28 st33" transform="translate(386.082 994.023)">Культури і</text><text class="st27 st28 st33" transform="translate(387.098 1006.023)">Мистецтв</text><text class="st27 st28 st33" transform="translate(389.552 1018.023)">(КНУКіМ)</text><text class="st30 st28 st33" transform="translate(386.808 958.023)">Київський</text><text class="st30 st28 st33" transform="translate(376.822 970.023)">Національний</text><text class="st30 st28 st33" transform="translate(381.964 982.023)">Університет</text><text class="st30 st28 st33" transform="translate(386.082 994.023)">Культури і</text><text class="st30 st28 st33" transform="translate(387.098 1006.023)">Мистецтв</text><text class="st30 st28 st33" transform="translate(389.552 1018.023)">(КНУКіМ)</text></g><g id="Main"><g id="fixtextpath0"><text class="st27 st28 st33" transform="rotate(-36.923 1025.382 -797.972)">M</text><text class="st27 st28 st33" transform="rotate(-36.923 1021.217 -810.449)">y</text><text class="st27 st28 st33" transform="rotate(-36.923 1018.716 -817.938)">k</text><text class="st27 st28 st33" transform="rotate(-36.923 1016.216 -825.426)">h</text><text class="st27 st28 st33" transform="rotate(-36.943 1013.016 -833.108)">a</text><text class="st27 st28 st33" transform="rotate(-36.943 1010.236 -841.433)">i</text><text class="st27 st28 st33" transform="rotate(-36.943 1009.125 -844.759)">l</text><text class="st27 st28 st33" transform="rotate(-36.918 1008.394 -848.816)">a</text><text class="st27 st28 st33" transform="rotate(-36.918 1005.613 -857.147)"></text><text class="st27 st28 st33" transform="rotate(-36.918 1004.223 -861.308)">Z</text><text class="st27 st28 st33" transform="rotate(-36.943 1000.798 -869.714)">a</text><text class="st27 st28 st33" transform="rotate(-36.943 998.018 -878.04)">d</text><text class="st27 st28 st33" transform="rotate(-36.943 995.237 -886.364)">n</text><text class="st27 st28 st33" transform="rotate(-36.943 992.456 -894.69)">i</text><text class="st27 st28 st33" transform="rotate(-36.943 991.346 -898.015)">p</text><text class="st27 st28 st33" transform="rotate(-36.943 988.565 -906.34)">r</text><text class="st27 st28 st33" transform="rotate(-37.545 976.294 -892.12)">o</text><text class="st27 st28 st33" transform="rotate(-37.545 973.513 -900.302)">v</text><text class="st27 st28 st33" transform="rotate(-37.545 971.014 -907.656)">s</text><text class="st27 st28 st33" transform="rotate(-38.23 957.207 -893.612)">k</text><text class="st27 st28 st33" transform="rotate(-38.23 954.707 -900.825)">o</text><text class="st27 st28 st33" transform="rotate(-38.23 951.926 -908.849)">h</text><text class="st27 st28 st33" transform="rotate(-38.238 949.032 -916.636)">o</text><text class="st27 st28 st33" transform="rotate(-38.238 946.252 -924.658)"></text><text class="st27 st28 st33" transform="rotate(-38.238 944.863 -928.666)">S</text><text class="st27 st28 st33" transform="rotate(-38.233 941.488 -938.37)">t</text><text class="st27 st28 st33" transform="rotate(-38.233 940.098 -942.377)">r</text><text class="st27 st28 st33" transform="rotate(-38.233 938.433 -947.18)">e</text><text class="st27 st28 st33" transform="rotate(-38.233 935.652 -955.203)">e</text><text class="st27 st28 st33" transform="rotate(-38.233 932.87 -963.225)">t</text><text class="st28 st33" transform="rotate(-36.923 1025.382 -797.972)">M</text><text class="st28 st33" transform="rotate(-36.923 1021.217 -810.449)">y</text><text class="st28 st33" transform="rotate(-36.923 1018.716 -817.938)">k</text><text class="st28 st33" transform="rotate(-36.923 1016.216 -825.426)">h</text><text class="st28 st33" transform="rotate(-36.943 1013.016 -833.108)">a</text><text class="st28 st33" transform="rotate(-36.943 1010.236 -841.433)">i</text><text class="st28 st33" transform="rotate(-36.943 1009.125 -844.759)">l</text><text class="st28 st33" transform="rotate(-36.918 1008.394 -848.816)">a</text><text class="st28 st33" transform="rotate(-36.918 1005.613 -857.147)"></text><text class="st28 st33" transform="rotate(-36.918 1004.223 -861.308)">Z</text><text class="st28 st33" transform="rotate(-36.943 1000.798 -869.714)">a</text><text class="st28 st33" transform="rotate(-36.943 998.018 -878.04)">d</text><text class="st28 st33" transform="rotate(-36.943 995.237 -886.364)">n</text><text class="st28 st33" transform="rotate(-36.943 992.456 -894.69)">i</text><text class="st28 st33" transform="rotate(-36.943 991.346 -898.015)">p</text><text class="st28 st33" transform="rotate(-36.943 988.565 -906.34)">r</text><text class="st28 st33" transform="rotate(-37.545 976.294 -892.12)">o</text><text class="st28 st33" transform="rotate(-37.545 973.513 -900.302)">v</text><text class="st28 st33" transform="rotate(-37.545 971.014 -907.656)">s</text><text class="st28 st33" transform="rotate(-38.23 957.207 -893.612)">k</text><text class="st28 st33" transform="rotate(-38.23 954.707 -900.825)">o</text><text class="st28 st33" transform="rotate(-38.23 951.926 -908.849)">h</text><text class="st28 st33" transform="rotate(-38.238 949.032 -916.636)">o</text><text class="st28 st33" transform="rotate(-38.238 946.252 -924.658)"></text><text class="st28 st33" transform="rotate(-38.238 944.863 -928.666)">S</text><text class="st28 st33" transform="rotate(-38.233 941.488 -938.37)">t</text><text class="st28 st33" transform="rotate(-38.233 940.098 -942.377)">r</text><text class="st28 st33" transform="rotate(-38.233 938.433 -947.18)">e</text><text class="st28 st33" transform="rotate(-38.233 935.652 -955.203)">e</text><text class="st28 st33" transform="rotate(-38.233 932.87 -963.225)">t</text><path id="tp0" d="M673.1 461.1l27.4-20.6 11.4-8.5 11.4-8.6 11.4-8.5 11.4-8.6 11.3-8.7 11.2-8.8 11.2-8.8 26.9-21.2" class="st34"/></g></g></g></svg>